<svg xmlns="http://www.w3.org/2000/svg" width="26" height="26" fill="none" viewBox="0 0 26 26"><path fill="#fff" d="M10.375 0.75C5.06812 0.75 0.75 5.06812 0.75 10.375C0.75 15.6819 5.06812 20 10.375 20C15.6819 20 20 15.6819 20 10.375C20 5.06812 15.6819 0.75 10.375 0.75ZM10.375 18.25C6.03325 18.25 2.5 14.7176 2.5 10.375C2.5 6.03325 6.03325 2.5 10.375 2.5C14.7176 2.5 18.25 6.03325 18.25 10.375C18.25 14.7176 14.7176 18.25 10.375 18.25Z"/><path fill="#fff" d="M24.9935 23.7564L19.7426 18.5063C19.4005 18.1642 18.8475 18.1642 18.5054 18.5063C18.1632 18.8485 18.1632 19.4015 18.5054 19.7436L23.7562 24.9936C23.9269 25.1642 24.1509 25.25 24.3749 25.25C24.5989 25.25 24.8229 25.1642 24.9935 24.9936C25.3356 24.6515 25.3356 24.0985 24.9935 23.7564Z"/></svg>