<svg width="14" height="15" viewBox="0 0 14 15" fill="none" xmlns="http://www.w3.org/2000/svg">
<g clip-path="url(#clip0_61:10549)">
<path d="M9.40652 12.2503C8.41056 12.9226 7.22338 13.2824 6.00714 13.2805C4.39372 13.2805 2.84637 12.6632 1.7055 11.5644C0.564638 10.4657 -0.0762939 8.9754 -0.0762939 7.4215C-0.0762939 5.8676 0.564638 4.37734 1.7055 3.27856C2.84637 2.17979 4.39372 1.5625 6.00714 1.5625C7.50844 1.57351 8.95171 2.12246 10.0557 3.10238C11.1597 4.0823 11.8453 5.42299 11.979 6.8632L13.0443 5.82244L14.0003 6.73679L11.2659 9.48827L8.36746 6.73679L9.32996 5.82244L10.6425 7.09916C10.5689 5.95964 10.0499 4.88927 9.18982 4.10354C8.32975 3.31782 7.19254 2.87509 6.00714 2.8645C4.76249 2.87452 3.57291 3.3602 2.69998 4.21475C1.82705 5.0693 1.34224 6.22276 1.35214 7.4215C1.34223 8.61916 1.82615 9.77167 2.69766 10.626C3.56917 11.4804 4.75707 11.9668 6.00058 11.9785C6.93978 11.9793 7.85641 11.7012 8.62558 11.1821L9.40652 12.2503Z" fill="black"/>
</g>
<defs>
<clipPath id="clip0_61:10549">
<rect width="14" height="13.4835" fill="white" transform="translate(0 0.679688)"/>
</clipPath>
</defs>
</svg>
