<svg width="24" height="24" viewBox="0 0 24 24" fill="none" xmlns="http://www.w3.org/2000/svg">
<path d="M8.25 1.75006C3.70125 1.75006 0 5.45131 0 10.0001C0 14.5488 3.70125 18.2501 8.25 18.2501C12.7987 18.2501 16.5 14.5488 16.5 10.0001C16.5 5.45131 12.7987 1.75006 8.25 1.75006ZM8.25 16.7501C4.5285 16.7501 1.5 13.7223 1.5 10.0001C1.5 6.27856 4.5285 3.25006 8.25 3.25006C11.9722 3.25006 15 6.27856 15 10.0001C15 13.7223 11.9722 16.7501 8.25 16.7501Z" fill="black" fill-opacity="0.61"/>
<path d="M20.7803 21.4698L16.2795 16.9698C15.9863 16.6766 15.5123 16.6766 15.219 16.9698C14.9258 17.2631 14.9258 17.7371 15.219 18.0303L19.7198 22.5303C19.866 22.6766 20.058 22.7501 20.25 22.7501C20.442 22.7501 20.634 22.6766 20.7803 22.5303C21.0735 22.2371 21.0735 21.7631 20.7803 21.4698Z" fill="black" fill-opacity="0.61"/>
</svg>
