<svg width="23" height="23" viewBox="0 0 23 23" fill="none" xmlns="http://www.w3.org/2000/svg">
<path d="M11.5 0C5.15919 0 0 5.15919 0 11.5C0 14.8978 1.48254 17.9553 3.83333 20.0622V20.0704L4.00008 20.2141C4.02931 20.2395 4.06142 20.2606 4.09113 20.2855C4.29765 20.4599 4.5104 20.6272 4.7289 20.7872C4.78783 20.8303 4.84677 20.872 4.90667 20.9137C5.13858 21.0766 5.37577 21.2319 5.61919 21.3775C5.65992 21.402 5.7016 21.425 5.74233 21.4485C6.00923 21.6037 6.28188 21.7499 6.56171 21.8835C6.56458 21.885 6.56746 21.8859 6.57033 21.8874C7.16881 22.1725 7.79652 22.4058 8.44627 22.585C8.45825 22.5884 8.47023 22.5922 8.48221 22.5951C8.78935 22.679 9.10177 22.7494 9.4185 22.8074C9.44821 22.8126 9.47744 22.8179 9.50715 22.8232C9.81285 22.8769 10.1224 22.9195 10.4362 22.9487C10.4722 22.9521 10.5081 22.954 10.5436 22.9569C10.8594 22.9832 11.1775 23 11.5 23C11.8225 23 12.1406 22.9832 12.4564 22.9569C12.4924 22.954 12.5283 22.9521 12.5637 22.9487C12.8776 22.92 13.1871 22.8769 13.4929 22.8232C13.5226 22.8179 13.5518 22.8126 13.5815 22.8074C13.8982 22.7494 14.2106 22.679 14.5178 22.5951C14.5298 22.5917 14.5417 22.5884 14.5537 22.585C15.2035 22.4058 15.8312 22.1725 16.4297 21.8874C16.4325 21.8859 16.4354 21.885 16.4383 21.8835C16.7181 21.7499 16.9908 21.6032 17.2577 21.4485C17.2989 21.4245 17.3401 21.402 17.3808 21.3775C17.6247 21.2319 17.8619 21.0761 18.0933 20.9137C18.1527 20.872 18.2122 20.8303 18.2711 20.7872C18.4896 20.6272 18.7024 20.4599 18.9089 20.2855C18.9386 20.2606 18.9707 20.2395 18.9999 20.2141L19.1667 20.0704V20.0622C21.5175 17.9549 23 14.8978 23 11.5C23 5.15919 17.8408 0 11.5 0ZM11.5 11.5C9.3864 11.5 7.66667 9.78027 7.66667 7.66667C7.66667 5.55306 9.3864 3.83333 11.5 3.83333C13.6136 3.83333 15.3333 5.55306 15.3333 7.66667C15.3333 9.78027 13.6136 11.5 11.5 11.5ZM12.9375 12.4583C15.8436 12.4583 18.2083 14.823 18.2083 17.7292V19.6257C18.1882 19.6425 18.1671 19.6578 18.147 19.6746C17.9577 19.8284 17.7637 19.9745 17.5653 20.1145C17.5212 20.1456 17.4781 20.1777 17.434 20.2079C17.2198 20.354 16.9999 20.4911 16.7761 20.6209C16.7354 20.6449 16.6942 20.6684 16.653 20.6919C16.4182 20.8236 16.1791 20.9472 15.9352 21.0603C15.9098 21.0723 15.8839 21.0838 15.858 21.0953C15.0621 21.4571 14.2236 21.7192 13.3606 21.8744C13.3333 21.8792 13.306 21.8845 13.2787 21.8893C13.007 21.9358 12.7329 21.9717 12.4569 21.9971C12.419 22.0005 12.3807 22.0029 12.3424 22.0057C12.063 22.0273 11.7822 22.0417 11.5 22.0417C11.2178 22.0417 10.937 22.0273 10.6576 22.0048C10.6198 22.0019 10.5814 21.9995 10.5431 21.9961C10.2671 21.9707 9.99302 21.9353 9.72133 21.8883C9.69402 21.8835 9.66671 21.8787 9.6394 21.8735C8.77642 21.7182 7.93787 21.4561 7.14198 21.0944C7.1161 21.0824 7.09023 21.0714 7.06483 21.0594C6.82094 20.9463 6.58183 20.8227 6.34704 20.6909C6.30583 20.6674 6.2651 20.6439 6.2239 20.62C6.00012 20.4906 5.78019 20.3531 5.566 20.2069C5.52144 20.1768 5.47831 20.1446 5.43471 20.1135C5.23633 19.9736 5.04227 19.8279 4.853 19.6736C4.83288 19.6573 4.81179 19.6415 4.79167 19.6248V17.7292C4.79167 14.823 7.15635 12.4583 10.0625 12.4583H12.9375ZM19.1667 18.7239V17.7292C19.1667 14.7243 17.0277 12.2096 14.1929 11.627C15.4584 10.764 16.2917 9.31069 16.2917 7.66667C16.2917 5.02454 14.1421 2.875 11.5 2.875C8.85787 2.875 6.70833 5.02454 6.70833 7.66667C6.70833 9.31069 7.5416 10.764 8.80708 11.627C5.97233 12.2096 3.83333 14.7243 3.83333 17.7292V18.7239C2.05275 16.8355 0.958333 14.294 0.958333 11.5C0.958333 5.68723 5.68723 0.958333 11.5 0.958333C17.3128 0.958333 22.0417 5.68723 22.0417 11.5C22.0417 14.294 20.9473 16.8355 19.1667 18.7239Z" fill="#202323"/>
</svg>
