<svg width="28" height="28" viewBox="0 0 28 28" fill="none" xmlns="http://www.w3.org/2000/svg">
<path d="M14 0C6.28075 0 0 6.28075 0 14C0 18.1364 1.80483 21.8587 4.66667 24.4236V24.4335L4.86967 24.6085C4.90525 24.6394 4.94433 24.6651 4.9805 24.6954C5.23192 24.9077 5.49092 25.1113 5.75692 25.3062C5.82867 25.3587 5.90042 25.4094 5.97333 25.4602C6.25567 25.6585 6.54442 25.8475 6.84075 26.0248C6.89033 26.0546 6.94108 26.0826 6.99067 26.1112C7.31558 26.3002 7.6475 26.4781 7.98817 26.6408C7.99167 26.6426 7.99517 26.6437 7.99867 26.6455C8.72725 26.9926 9.49142 27.2767 10.2824 27.4948C10.297 27.4989 10.3116 27.5036 10.3262 27.5071C10.7001 27.6092 11.0804 27.6949 11.466 27.7655C11.5022 27.7719 11.5377 27.7783 11.5739 27.7847C11.9461 27.8501 12.3229 27.902 12.705 27.9376C12.7487 27.9417 12.7925 27.944 12.8357 27.9475C13.2201 27.9796 13.6074 28 14 28C14.3926 28 14.7799 27.9796 15.1643 27.9475C15.2081 27.944 15.2518 27.9417 15.295 27.9376C15.6771 27.9026 16.0539 27.8501 16.4261 27.7847C16.4622 27.7783 16.4978 27.7719 16.534 27.7655C16.9196 27.6949 17.2999 27.6092 17.6738 27.5071C17.6884 27.503 17.703 27.4989 17.7176 27.4948C18.5086 27.2767 19.2727 26.9926 20.0013 26.6455C20.0048 26.6437 20.0083 26.6426 20.0118 26.6408C20.3525 26.4781 20.6844 26.2996 21.0093 26.1112C21.0595 26.082 21.1097 26.0546 21.1592 26.0248C21.4562 25.8475 21.7449 25.6579 22.0267 25.4602C22.099 25.4094 22.1713 25.3587 22.2431 25.3062C22.5091 25.1113 22.7681 24.9077 23.0195 24.6954C23.0557 24.6651 23.0947 24.6394 23.1303 24.6085L23.3333 24.4335V24.4236C26.1952 21.8581 28 18.1364 28 14C28 6.28075 21.7192 0 14 0ZM14 14C11.4269 14 9.33333 11.9064 9.33333 9.33333C9.33333 6.76025 11.4269 4.66667 14 4.66667C16.5731 4.66667 18.6667 6.76025 18.6667 9.33333C18.6667 11.9064 16.5731 14 14 14ZM15.75 15.1667C19.2879 15.1667 22.1667 18.0454 22.1667 21.5833V23.8922C22.1422 23.9126 22.1165 23.9312 22.092 23.9517C21.8616 24.1389 21.6253 24.3168 21.3838 24.4872C21.3302 24.5251 21.2777 24.5642 21.224 24.6009C20.9632 24.7788 20.6955 24.9457 20.4231 25.1037C20.3735 25.1329 20.3233 25.1615 20.2732 25.1901C19.9873 25.3505 19.6962 25.501 19.3993 25.6387C19.3684 25.6532 19.3369 25.6672 19.3054 25.6812C18.3365 26.1217 17.3157 26.4408 16.2651 26.6297C16.2318 26.6356 16.1986 26.642 16.1653 26.6478C15.8346 26.7044 15.5009 26.7482 15.1649 26.7791C15.1188 26.7832 15.0722 26.7861 15.0255 26.7896C14.6854 26.8158 14.3436 26.8333 14 26.8333C13.6564 26.8333 13.3146 26.8158 12.9745 26.7884C12.9284 26.7849 12.8818 26.782 12.8351 26.7779C12.4991 26.747 12.1654 26.7038 11.8347 26.6467C11.8014 26.6408 11.7682 26.635 11.7349 26.6286C10.6843 26.4396 9.6635 26.1205 8.69458 25.6801C8.66308 25.6655 8.63158 25.6521 8.60067 25.6375C8.30375 25.4998 8.01267 25.3493 7.72683 25.1889C7.67667 25.1603 7.62708 25.1318 7.57692 25.1026C7.3045 24.9451 7.03675 24.7777 6.776 24.5998C6.72175 24.563 6.66925 24.5239 6.61617 24.486C6.37467 24.3157 6.13842 24.1383 5.908 23.9505C5.8835 23.9307 5.85783 23.9114 5.83333 23.891V21.5833C5.83333 18.0454 8.71208 15.1667 12.25 15.1667H15.75ZM23.3333 22.7943V21.5833C23.3333 17.9252 20.7293 14.8639 17.2783 14.1546C18.8189 13.104 19.8333 11.3347 19.8333 9.33333C19.8333 6.11683 17.2165 3.5 14 3.5C10.7835 3.5 8.16667 6.11683 8.16667 9.33333C8.16667 11.3347 9.18108 13.104 10.7217 14.1546C7.27067 14.8639 4.66667 17.9252 4.66667 21.5833V22.7943C2.499 20.4954 1.16667 17.4014 1.16667 14C1.16667 6.92358 6.92358 1.16667 14 1.16667C21.0764 1.16667 26.8333 6.92358 26.8333 14C26.8333 17.4014 25.501 20.4954 23.3333 22.7943Z" fill="white"/>
</svg>
