<svg width="33" height="22" viewBox="0 0 33 22" fill="none" xmlns="http://www.w3.org/2000/svg">
<path d="M28.6307 14.8666V14.6568C28.0408 14.9177 28.4177 14.8666 20.0718 14.8666C20.0718 13.6925 20.0774 13.7531 20.0718 13.6925C19.9791 13.6879 19.8971 13.6879 19.5584 13.6879C19.5584 14.5218 19.553 14.0047 19.553 14.8666H17.3901C17.3901 14.3028 17.3956 14.1538 17.3956 13.5061C16.8494 13.7857 16.1502 13.8043 15.5221 13.795C15.5221 14.4797 15.5166 14.1817 15.5166 14.8666H12.8458C12.5672 14.6008 12.6983 14.7219 12.0047 14.0558C11.8298 14.2189 11.3055 14.7035 11.1252 14.8666H6.64647V10.5665H11.1853C11.4584 10.8274 11.3382 10.7109 12.0318 11.3677C12.2067 11.2048 12.6982 10.7434 12.8895 10.5665H16.0574C16.5926 10.5665 17.0406 10.6551 17.3846 10.8274V10.5665C20.3505 10.5665 20.8967 10.5012 21.5194 10.804V10.5665H25.7907V10.8087C26.4133 10.4872 26.8612 10.5665 29.3354 10.5665V10.7994C29.8981 10.5245 30.242 10.5572 32.3013 10.5665V2.39517C32.3013 1.16061 31.127 0.158936 29.6795 0.158936H3.46206C2.01464 0.158936 0.840332 1.16061 0.840332 2.39517V7.51042C1.35382 6.49019 1.91638 5.36746 2.10203 4.99946H4.27048C4.50539 5.46995 4.35779 5.17176 4.76207 5.9824V4.99946H7.27458C7.43293 5.2882 7.88086 6.11746 8.0338 6.39703C8.35056 5.76341 8.58555 5.28353 8.72206 4.99946H14.3478C14.3478 4.99473 14.976 4.99946 14.9815 4.99946C17.3683 5.00868 17.909 4.9621 18.4989 5.24629V4.99946H20.6783V5.43265C21.0934 5.14847 21.656 4.99946 22.355 4.99946H23.8625C23.8625 5.02275 23.9665 5.01341 23.9882 5.01341H25.7578C25.9873 5.46989 25.8999 5.29287 26.2384 5.97306V5.01341H28.6035C28.8711 5.38608 28.5489 4.92954 29.2151 5.87057V5.01341H31.3945V9.29946H29.1224C28.8273 8.8801 29.0459 9.19691 28.4014 8.27922V9.29946H25.5174C25.168 8.60992 25.5119 9.28545 25.1569 8.58663H24.1191C23.8898 9.05245 23.999 8.82891 23.7696 9.29946H22.3057C21.6341 9.29946 21.0877 9.15967 20.6836 8.88482V9.29946H17.0515C17.035 8.65189 17.0459 8.14404 17.0459 8.14404C16.9476 8.13009 16.8601 8.13476 16.5107 8.13476V9.30407H9.10978V8.77294C8.9732 9.03383 8.96231 9.04784 8.8312 9.30407H7.21991C7.00141 8.88944 7.06156 9.00593 6.9414 8.77294V9.30407H4.05198C3.82254 8.83352 3.93182 9.05718 3.70245 8.5913H2.6537C2.42433 9.05712 2.53361 8.83352 2.30417 9.30407H0.851212V18.7937C0.851212 20.0285 2.02559 21.03 3.473 21.03H29.6958C31.1431 21.03 32.3176 20.0285 32.3176 18.7937V14.5824C31.6239 14.969 30.5314 14.8666 28.6307 14.8666Z" fill="#016FD0"/>
<path d="M20.05 5.61926H19.127V8.84766H20.05V5.61926Z" fill="#016FD0"/>
<path d="M18.608 6.48567C18.608 5.72166 17.8379 5.62857 17.1114 5.62857L14.9758 5.6145V8.84296H15.8716V7.67365H16.8548C17.8598 7.67365 17.6467 8.15354 17.6631 8.84296H18.5699V8.21401C18.5699 7.78548 18.4879 7.51058 17.969 7.3569C18.3733 7.21711 18.6135 6.8584 18.608 6.48567ZM17.0023 7.01213H15.8716V6.29931H17.0187C17.2973 6.29931 17.603 6.34594 17.603 6.64402C17.603 6.95155 17.3134 7.01213 17.0023 7.01213Z" fill="#016FD0"/>
<path d="M14.3534 6.29934V5.61926H11.322V8.84766H14.3534V8.18147H12.2286V7.53863H14.2933V6.88172H12.2286V6.29934H14.3534Z" fill="#016FD0"/>
<path d="M10.65 8.84766V5.61926H9.14243L8.06645 7.8088L6.88112 5.61926H5.401V8.67992L3.86621 5.61926H2.52801L0.905762 8.84766H1.88354L2.23301 8.13489H4.11741L4.46695 8.84766H6.3131V6.32263L7.62392 8.84766H8.4214L9.73222 6.32263V8.84766H10.65ZM2.55524 7.46404L3.167 6.17823L3.79518 7.46404H2.55524Z" fill="#016FD0"/>
<path d="M16.0902 11.1819H13.2118L12.0647 12.244L10.945 11.1819H7.31292L7.30737 14.4103H10.8796L12.0429 13.3389L13.1571 14.4103H14.9159L14.9213 13.3249C15.9536 13.3249 17.6141 13.5391 17.6141 12.2394C17.6141 11.4334 16.9423 11.1819 16.0902 11.1819ZM10.4207 13.7301H8.20311V13.0872H10.1858V12.4304H8.20311V11.848H10.4808L11.4585 12.7892L10.4207 13.7301ZM14.0146 14.1122L12.6328 12.8031L14.0146 11.5266V14.1122ZM16.0793 12.6681H14.9213V11.848H16.0956C16.4015 11.848 16.6528 11.9552 16.6528 12.2395C16.6528 12.5375 16.4015 12.6681 16.0793 12.6681Z" fill="#016FD0"/>
<path d="M20.4927 7.25908C20.4927 8.29327 21.0498 8.84302 22.295 8.84302H23.3439L23.6932 8.13025H25.5668L25.9272 8.84302H27.768V6.42515L29.472 8.84302H30.7611V5.62863H29.838V7.86947L28.2485 5.62863H26.8666V8.67533L25.3429 5.62863H23.9882L22.7046 8.16755H22.3005C21.574 8.16755 21.4211 7.79015 21.4211 7.24046C21.4211 6.13168 22.2786 6.30871 23.2289 6.32266V5.6145H22.3495C21.0662 5.6145 20.4927 6.17353 20.4927 7.25908ZM24.6493 6.1782L25.2609 7.464H24.0156L24.6493 6.1782Z" fill="#016FD0"/>
<path d="M27.5001 13.7157H25.7415L25.736 14.4051H27.4948C28.3032 14.4051 28.9258 14.1443 28.9258 13.3803C28.9258 11.8335 26.5827 12.8585 26.5827 12.1549C26.5827 11.8941 26.8503 11.8569 27.0851 11.8569H28.7456V11.1766H26.9323C26.2331 11.1766 25.6487 11.4842 25.6487 12.141C25.6487 13.6784 27.9808 12.7234 27.9808 13.4175C27.9755 13.6692 27.7241 13.7157 27.5001 13.7157Z" fill="#016FD0"/>
<path d="M21.6832 12.0531C21.6832 11.289 20.9131 11.1819 20.2031 11.1819H18.051L18.0457 14.4103H18.9523L18.9576 13.2318H19.919C20.5198 13.2318 20.7274 13.325 20.7274 13.8747L20.7219 14.4103H21.6286L21.6341 13.7675C21.6341 13.3529 21.5357 13.064 21.0332 12.9103C21.4538 12.7658 21.6779 12.4072 21.6832 12.0531ZM20.0883 12.5748H18.9576V11.8481H20.1048C20.3833 11.8481 20.6892 11.8948 20.6892 12.1928C20.6891 12.5143 20.3943 12.5748 20.0883 12.5748Z" fill="#016FD0"/>
<path d="M25.1953 11.848V11.1819H22.1802L22.1748 14.4103H25.1899L25.1953 13.7441L23.0869 13.7301V13.0872H25.157V12.4304H23.0924V11.848H25.1953Z" fill="#016FD0"/>
<path d="M30.6136 11.862H32.2576V11.1819H30.4605C29.7614 11.1819 29.1606 11.4894 29.1606 12.1463C29.1606 13.6836 31.4928 12.7426 31.4928 13.4227C31.4928 13.6603 31.258 13.7209 31.0341 13.7209H29.2863L29.2808 14.4103H31.0286C31.4874 14.4103 31.99 14.3264 32.2576 13.9957V12.7937C31.684 12.1508 30.1111 12.7331 30.1111 12.1648C30.1111 11.8947 30.3622 11.862 30.6136 11.862Z" fill="#016FD0"/>
</svg>
