<svg width="20" height="20" viewBox="0 0 20 20" fill="none" xmlns="http://www.w3.org/2000/svg">
<path d="M16.1348 0H3.86518C1.7339 0 0 1.66686 0 3.7162V7.64188V15.5146C0 17.5639 1.7339 19.2308 3.86518 19.2308H16.1352C18.2665 19.2308 20 17.5639 20 15.5146V7.64149V3.71582C19.9996 1.66647 18.2661 0 16.1348 0ZM17.2434 2.21615L17.6856 2.21459V2.63781V5.47422L14.3069 5.4847L14.2952 2.22546L17.2434 2.21615ZM7.14539 7.64149C7.78603 6.78925 8.82524 6.23027 10 6.23027C11.1748 6.23027 12.214 6.78925 12.8538 7.64149C13.2705 8.19776 13.5203 8.87816 13.5203 9.61519C13.5203 11.4814 11.9396 12.9997 9.9996 12.9997C8.05833 12.9997 6.47934 11.4814 6.47934 9.61519C6.47975 8.87816 6.72866 8.19776 7.14539 7.64149ZM18.0511 15.5142C18.0511 16.5309 17.1914 17.3568 16.1348 17.3568H3.86518C2.80821 17.3568 1.94852 16.5309 1.94852 15.5142V7.64149H4.93384C4.67605 8.25129 4.53123 8.91734 4.53123 9.61519C4.53123 12.5141 6.98402 14.8741 10 14.8741C13.0156 14.8741 15.4684 12.5141 15.4684 9.61519C15.4684 8.91734 15.3227 8.25129 15.065 7.64149H18.0511V15.5142Z" fill="#A7A7A7"/>
</svg>
