<svg width="31" height="12" viewBox="0 0 31 12" fill="none" xmlns="http://www.w3.org/2000/svg">
<path fill-rule="evenodd" clip-rule="evenodd" d="M18.7021 1.80847C19.0684 1.55304 19.4469 1.45215 19.8592 1.47331C20.4648 1.5035 20.8136 1.7788 20.8905 2.3748C21.0053 3.27501 20.979 4.18682 20.9179 5.08625C20.8895 5.50784 20.4323 5.20751 20.1805 5.27898C19.9859 5.33342 19.8997 5.22015 19.9023 5.014C19.9098 4.38239 19.9057 3.75078 19.9046 3.11891C19.9041 2.98242 19.9021 2.84542 19.8928 2.70919C19.8765 2.45995 19.7413 2.33275 19.49 2.31469C18.9745 2.27805 18.7408 2.48472 18.7408 2.98655C18.7408 3.65015 18.7346 4.3135 18.7444 4.97633C18.748 5.20674 18.6708 5.29472 18.434 5.28878C17.5751 5.26737 17.7105 5.40102 17.7041 4.58364C17.6966 3.6677 17.71 2.7515 17.6979 1.83607C17.6943 1.58735 17.7719 1.48466 18.0212 1.51279C18.1251 1.52466 18.2327 1.52517 18.3367 1.51279C18.5429 1.48853 18.6845 1.5471 18.7021 1.80847Z" fill="#F8FBFC"/>
<path fill-rule="evenodd" clip-rule="evenodd" d="M14.6835 3.77066C14.6835 4.24901 14.6781 4.62803 14.6855 5.00679C14.6894 5.2034 14.621 5.32466 14.4136 5.28158C14.1711 5.23126 13.8635 5.44877 13.6863 5.10355C13.6512 5.03543 13.5782 5.11542 13.5289 5.14199C13.3792 5.22094 13.2257 5.28287 13.0567 5.31099C12.1377 5.46425 11.4459 4.98873 11.6954 3.80059C11.7762 3.41847 12.0866 3.2469 12.439 3.15066C12.7156 3.07532 13.001 3.0828 13.284 3.06165C13.4063 3.0521 13.6187 3.19297 13.645 2.91122C13.6767 2.574 13.5696 2.37456 13.307 2.32683C13.2255 2.31186 13.1393 2.3147 13.0554 2.31754C12.7505 2.32631 12.445 2.32812 12.1413 2.35263C11.9501 2.36863 11.881 2.31032 11.8748 2.11371C11.8598 1.62633 11.8503 1.62168 12.3511 1.54067C12.8413 1.46094 13.3341 1.42172 13.8217 1.55641C14.3086 1.69083 14.5867 2.0136 14.6546 2.51492C14.7157 2.96541 14.6644 3.41848 14.6835 3.77066ZM13.6876 4.01809C13.5898 3.92598 13.8013 3.69248 13.5493 3.65662C13.3349 3.62617 13.1093 3.62488 12.8955 3.70616C12.6903 3.78356 12.6589 3.95952 12.6498 4.14116C12.6431 4.28746 12.6393 4.45078 12.8021 4.52509C13.0621 4.64351 13.3199 4.5754 13.5629 4.466C13.759 4.37802 13.6403 4.18606 13.6876 4.01809Z" fill="#F8FBFC"/>
<path fill-rule="evenodd" clip-rule="evenodd" d="M24.4355 3.88365C24.4355 4.26241 24.4301 4.64169 24.4378 5.02122C24.442 5.20544 24.378 5.3169 24.1852 5.28181C23.9301 5.23485 23.6158 5.43868 23.4223 5.1012C23.3944 5.0527 23.3111 5.12391 23.2582 5.15255C23.0993 5.23821 22.9323 5.29755 22.7522 5.32103C21.7475 5.45055 21.2047 4.83623 21.4565 3.77709C21.5409 3.42181 21.8278 3.25565 22.156 3.15967C22.4413 3.07582 22.737 3.07891 23.0317 3.0624C23.1684 3.05492 23.4027 3.17876 23.3991 2.87508C23.396 2.62146 23.3725 2.37609 23.0533 2.32707C22.9398 2.30952 22.8222 2.31546 22.7063 2.31726C22.4537 2.32268 22.2014 2.33506 21.9485 2.33945C21.8268 2.341 21.6296 2.43001 21.6485 2.19909C21.6658 1.98856 21.472 1.67636 21.8348 1.5889C22.349 1.46557 22.8771 1.42093 23.4019 1.51201C24.0691 1.62708 24.4069 2.03887 24.4311 2.74608C24.4443 3.12458 24.4337 3.50411 24.4337 3.88339C24.434 3.88365 24.4347 3.88365 24.4355 3.88365ZM23.4342 4.04258C23.366 3.92364 23.543 3.69994 23.3106 3.65841C23.0985 3.62074 22.8699 3.6228 22.656 3.7033C22.4849 3.7678 22.415 3.89836 22.4122 4.07097C22.4096 4.22551 22.3588 4.40767 22.5221 4.50442C22.7721 4.65227 23.0293 4.57228 23.2825 4.48378C23.5216 4.39993 23.3849 4.19765 23.4342 4.04258Z" fill="#F8FBFC"/>
<path fill-rule="evenodd" clip-rule="evenodd" d="M5.89593 2.79237C5.89593 2.088 5.89387 1.38311 5.8967 0.678225C5.89825 0.30127 5.96663 0.235993 6.3379 0.231607C6.9917 0.224125 6.9917 0.224125 6.9917 0.871217C6.9917 2.16514 6.99196 3.45881 6.99145 4.75248C6.99145 5.19652 6.91972 5.27392 6.48755 5.2716C5.80846 5.26902 5.90135 5.3361 5.8967 4.6854C5.89232 4.05456 5.89593 3.42347 5.89593 2.79237Z" fill="#F8FBFC"/>
<path fill-rule="evenodd" clip-rule="evenodd" d="M10.1483 2.72764C10.1483 1.99179 10.1545 1.25517 10.1444 0.518807C10.1413 0.304657 10.1999 0.227254 10.4269 0.22648C11.1677 0.224416 11.1677 0.215128 11.1677 0.968263C11.1677 2.29341 11.162 3.61881 11.1728 4.94448C11.1746 5.19526 11.1192 5.29692 10.8449 5.29253C10.1483 5.2817 10.148 5.29434 10.148 4.58945C10.1483 3.96894 10.1483 3.34868 10.1483 2.72764Z" fill="#F8FBFC"/>
<path fill-rule="evenodd" clip-rule="evenodd" d="M15.2749 3.36722C15.2749 2.84139 15.2837 2.31531 15.2703 1.78974C15.2651 1.58204 15.333 1.50025 15.5386 1.51238C15.7061 1.52296 15.8748 1.51367 16.0433 1.51573C16.0949 1.51676 16.1826 1.51238 16.1932 1.53689C16.3483 1.89217 16.5294 1.60965 16.6997 1.56346C16.8893 1.5116 17.1347 1.37512 17.2629 1.52734C17.4043 1.69505 17.306 1.97061 17.3065 2.1992C17.307 2.27067 17.2482 2.30421 17.1765 2.30757C17.1138 2.31066 17.0508 2.31273 16.9879 2.31944C16.4001 2.38007 16.299 2.4905 16.299 3.0718C16.2987 3.71322 16.2918 4.35515 16.3029 4.99656C16.3067 5.21587 16.2329 5.29508 16.0131 5.28863C15.1191 5.26077 15.2927 5.41428 15.2765 4.56568C15.2685 4.16628 15.2749 3.76688 15.2749 3.36722Z" fill="#F8FBFC"/>
<path fill-rule="evenodd" clip-rule="evenodd" d="M7.46303 2.5934C7.29506 2.62642 7.28449 2.53251 7.29016 2.39215C7.33196 1.33972 8.396 0.281872 9.45849 0.235172C9.61123 0.227947 9.65406 0.268197 9.65303 0.424552C9.6471 1.4566 8.51804 2.58333 7.46303 2.5934Z" fill="#F8FBFC"/>
<path fill-rule="evenodd" clip-rule="evenodd" d="M9.65176 5.11093C9.66647 5.2162 9.63706 5.28045 9.48457 5.27761C8.41847 5.25671 7.30644 4.14803 7.28528 3.08787C7.28219 2.92325 7.3356 2.89436 7.48344 2.90622C8.55006 2.99343 9.5096 3.90499 9.64222 4.96464C9.64712 5.00566 9.64764 5.04824 9.65176 5.11093Z" fill="#F8FBFC"/>
<path fill-rule="evenodd" clip-rule="evenodd" d="M20.4951 7.0933C20.3341 7.0577 20.1212 7.26978 20.0735 7.03164C20.0322 6.82187 20.2925 6.85542 20.4256 6.81414C20.7177 6.72383 21.0214 6.68771 21.3289 6.72667C21.5537 6.75531 21.7766 6.79917 21.8563 7.05151C21.9358 7.3041 21.7805 7.46974 21.6104 7.62171C21.5637 7.66325 21.5127 7.69989 21.4621 7.73988C21.5013 7.86373 21.6195 7.82967 21.6951 7.86321C22.1443 8.06291 22.264 8.46902 21.9755 8.86868C21.764 9.16178 21.4559 9.32407 21.1316 9.45385C20.7781 9.59524 20.4042 9.65897 20.0257 9.68787C19.7177 9.71161 19.6209 9.58234 19.7246 9.2944C19.953 8.66227 20.1852 8.03143 20.4158 7.40034C20.4507 7.30461 20.5077 7.21483 20.4951 7.0933ZM19.9646 9.40122C20.4125 9.40586 20.9125 9.29079 21.2562 9.1125C21.4538 9.01007 21.6404 8.89061 21.7678 8.70278C21.8762 8.5441 21.9136 8.37433 21.7709 8.21153C21.5802 7.99402 20.6633 7.92952 20.4496 8.11967C20.421 8.14522 20.4078 8.19011 20.3937 8.22855C20.2528 8.6117 20.1132 8.99511 19.9646 9.40122ZM21.1796 6.97023C21.0304 6.99732 20.8413 6.92508 20.7876 7.14465C20.7373 7.35209 20.5054 7.62532 20.6352 7.73549C20.7887 7.86605 21.0516 7.65835 21.2544 7.55979C21.3679 7.50457 21.4714 7.43259 21.5493 7.33016C21.6602 7.18309 21.6148 7.07369 21.4525 7.01616C21.3658 6.98494 21.2681 6.98416 21.1796 6.97023Z" fill="#ECF5F9"/>
<path fill-rule="evenodd" clip-rule="evenodd" d="M6.32606 9.04328C5.82733 9.39934 5.40651 9.81241 5.27931 10.4466C5.26047 10.5403 5.22539 10.6484 5.1018 10.6215C4.97073 10.5932 4.99705 10.4758 5.02362 10.388C5.12089 10.0671 5.23209 9.74998 5.32627 9.42824C5.35697 9.32271 5.44392 9.22441 5.38097 9.06573C4.96634 9.42849 4.56746 9.77836 4.3755 10.3032C4.33602 10.4115 4.30248 10.5222 4.25913 10.6293C4.2292 10.7015 4.17605 10.7544 4.08704 10.7294C3.99003 10.7015 4.00318 10.6202 4.0117 10.548C4.0344 10.3573 4.12755 10.1896 4.19257 10.0131C4.36027 9.56085 4.51611 9.10366 4.67969 8.64956C4.71091 8.56287 4.74239 8.44057 4.86262 8.47591C5.00324 8.51591 4.96221 8.63175 4.92325 8.73651C4.86959 8.88125 4.82418 9.02832 4.75735 9.22828C5.04297 9.0905 5.17998 8.85571 5.3949 8.72206C5.52416 8.64156 5.65317 8.46998 5.80952 8.59383C5.95917 8.71174 5.79043 8.85777 5.7605 8.99168C5.75173 9.0309 5.7378 9.06883 5.72283 9.11914C5.83636 9.16171 5.87944 9.07218 5.9375 9.02754C6.13694 8.87274 6.33225 8.71303 6.53195 8.55951C6.61297 8.49733 6.71179 8.48159 6.79745 8.54145C6.90117 8.61266 6.8475 8.70606 6.81009 8.79482C6.57737 9.34696 6.39289 9.91562 6.23086 10.492C6.20222 10.5937 6.18235 10.7204 6.03528 10.678C5.90241 10.6401 5.95324 10.5199 5.978 10.4373C6.10959 9.99483 6.25021 9.55518 6.38773 9.11449C6.39031 9.08095 6.39314 9.04689 6.39624 9.01309C6.37379 9.0229 6.3498 9.03322 6.32606 9.04328Z" fill="#ECF5F9"/>
<path fill-rule="evenodd" clip-rule="evenodd" d="M2.53943 7.97095C2.71669 7.98978 2.92284 7.99804 2.99972 8.21373C3.06965 8.4106 2.99998 8.58579 2.84672 8.72692C2.78712 8.78188 2.71591 8.81206 2.64806 8.75891C2.57633 8.70189 2.61013 8.63481 2.64702 8.56283C2.79203 8.28237 2.75436 8.21993 2.44913 8.24212C2.08353 8.26921 1.75121 8.39305 1.46507 8.62526C1.36832 8.70421 1.2597 8.7922 1.28782 8.93823C1.31517 9.08014 1.45604 9.08917 1.56157 9.11729C1.8459 9.19263 2.1359 9.24578 2.42075 9.3206C2.84879 9.43284 2.98579 9.76 2.77216 10.1385C2.49763 10.6251 1.44108 11.1081 0.901576 10.9954C0.642016 10.9414 0.493402 10.7895 0.477663 10.5211C0.462957 10.2755 0.716324 9.82708 0.893578 9.78399C0.9426 9.77238 1.00194 9.76619 1.03445 9.82295C1.0698 9.88487 1.05741 9.94577 1.01304 9.99814C0.925571 10.1026 0.829591 10.2004 0.777472 10.3315C0.680202 10.58 0.761218 10.7508 1.01794 10.7461C1.61498 10.7353 2.12661 10.5038 2.50692 10.0389C2.69708 9.8067 2.62225 9.63615 2.32399 9.55849C2.02934 9.4816 1.7267 9.43361 1.43463 9.34847C0.949824 9.20708 0.861068 8.82832 1.23106 8.48052C1.59253 8.14175 2.03837 7.99907 2.53943 7.97095Z" fill="#ECF5F9"/>
<path fill-rule="evenodd" clip-rule="evenodd" d="M29.6801 8.60349C29.4786 8.75933 29.3416 8.89272 29.1801 8.98303C28.9051 9.13732 28.7061 9.01967 28.677 8.70644C28.6556 8.48197 28.6858 8.2655 28.7923 8.06322C29.1006 7.47572 29.6156 7.11993 30.184 6.82373C30.28 6.77393 30.3618 6.80128 30.4426 6.87043C30.5223 6.93803 30.5249 7.0064 30.4849 7.09361C30.1378 7.85216 29.9598 8.668 29.6938 9.45364C29.6427 9.60355 29.5689 9.74287 29.4626 9.86336C29.282 10.069 29.055 10.1606 28.7856 10.1196C28.6612 10.1007 28.4585 10.1247 28.4827 9.92993C28.508 9.72842 28.6847 9.85485 28.791 9.86233C29.0011 9.87807 29.167 9.80892 29.2828 9.63967C29.4866 9.34166 29.57 8.99903 29.6801 8.60349ZM30.1141 7.19991C29.868 7.29434 29.6644 7.43909 29.4776 7.60783C29.217 7.84339 28.992 8.1045 28.9404 8.46829C28.9273 8.56479 28.8826 8.6987 28.9851 8.75469C29.0895 8.81326 29.1811 8.70773 29.2552 8.63936C29.6817 8.24795 29.918 7.73967 30.1141 7.19991Z" fill="#ECF5F9"/>
<path fill-rule="evenodd" clip-rule="evenodd" d="M17.5748 9.36945C17.3914 9.53096 17.2701 9.64681 17.1393 9.75104C17.008 9.85631 16.8472 9.90533 16.6968 9.82354C16.5541 9.74614 16.5443 9.58385 16.5394 9.4324C16.5301 9.13414 16.6393 8.87484 16.8075 8.63902C17.1217 8.19988 17.5521 7.90214 18.0248 7.65651C18.1264 7.60362 18.2193 7.59407 18.3143 7.68024C18.4043 7.761 18.3857 7.84486 18.3458 7.93593C18.0263 8.66043 17.8416 9.42853 17.6011 10.1791C17.4136 10.7648 17.074 11.0081 16.5967 10.9265C16.4868 10.9077 16.3312 10.908 16.3508 10.748C16.3748 10.5537 16.5306 10.6564 16.6274 10.6716C16.9107 10.7165 17.0952 10.5855 17.2221 10.3543C17.379 10.0681 17.4626 9.7544 17.5748 9.36945ZM17.9771 8.02495C17.4425 8.31469 16.9486 8.64469 16.8103 9.29178C16.7902 9.38544 16.7471 9.51625 16.8666 9.57431C16.9644 9.62178 17.0441 9.52993 17.1117 9.46981C17.5462 9.08202 17.781 8.57012 17.9771 8.02495Z" fill="#ECF5F9"/>
<path fill-rule="evenodd" clip-rule="evenodd" d="M7.73558 8.67562C7.84317 8.583 7.93554 8.50018 8.03127 8.42148C8.17988 8.29841 8.3481 8.23055 8.52381 8.34511C8.70648 8.46405 8.73951 8.6573 8.67784 8.85107C8.45595 9.54564 8.02327 10.0828 7.36585 10.3924C7.1308 10.5029 6.9938 10.6223 6.93755 10.8625C6.90917 10.9856 6.86712 11.1053 6.81938 11.2219C6.7683 11.3458 6.78584 11.5932 6.59388 11.5305C6.36812 11.4575 6.54512 11.2575 6.58692 11.1285C6.81061 10.4378 7.04979 9.7536 7.28277 9.06651C7.33334 8.91738 7.37334 8.76361 7.43242 8.61783C7.47886 8.50327 7.45693 8.2979 7.65405 8.33402C7.84034 8.36807 7.68888 8.54817 7.73558 8.67562ZM7.25259 10.1385C7.79957 9.86893 8.18194 9.44708 8.3948 8.87429C8.43067 8.77883 8.49465 8.66401 8.38139 8.5879C8.26967 8.51308 8.18814 8.61473 8.1097 8.68156C7.66179 9.06419 7.42494 9.57608 7.25259 10.1385Z" fill="#ECF5F9"/>
<path fill-rule="evenodd" clip-rule="evenodd" d="M11.0861 8.72495C11.0409 8.68058 10.9883 8.71205 10.938 8.71128C10.825 8.70999 10.6498 8.82171 10.6296 8.62639C10.6126 8.46333 10.7986 8.46256 10.915 8.45224C11.1771 8.42979 11.3201 8.30001 11.4016 8.04948C11.4862 7.78914 11.6315 7.55281 11.8173 7.34743C11.9558 7.19469 12.1338 7.11341 12.3276 7.20243C12.5301 7.29609 12.5689 7.50817 12.5988 7.7089C12.6094 7.77702 12.5719 7.83765 12.5051 7.85597C12.4148 7.88074 12.3795 7.81598 12.3452 7.74296C12.2951 7.63743 12.3361 7.45115 12.1666 7.44754C12.0002 7.44367 11.9334 7.60879 11.8549 7.73058C11.7481 7.8957 11.6527 8.06831 11.6129 8.28866C11.7337 8.2773 11.8356 8.26492 11.9375 8.25873C12.0126 8.25408 12.0936 8.25537 12.1098 8.35213C12.1248 8.44037 12.0683 8.50951 11.9896 8.50539C11.3704 8.47236 11.2953 8.95123 11.1619 9.37488C10.9978 9.89607 10.8402 10.4191 10.6719 10.9387C10.632 11.0623 10.6585 11.3035 10.449 11.2375C10.2444 11.1727 10.4008 10.9774 10.4317 10.8556C10.6007 10.1941 10.819 9.54646 11.0486 8.90298C11.0693 8.84648 11.1147 8.79384 11.0861 8.72495Z" fill="#ECF5F9"/>
<path fill-rule="evenodd" clip-rule="evenodd" d="M27.5141 7.62491C27.8103 7.37257 28.0353 7.17494 28.2667 6.98581C28.3539 6.91538 28.4571 6.81553 28.5748 6.90583C28.6847 6.98943 28.6416 7.11895 28.6021 7.22731C28.3923 7.81093 28.2027 8.40023 28.0533 9.00217C28.028 9.10306 27.9984 9.19646 27.8722 9.16472C27.7321 9.12989 27.779 9.00966 27.8015 8.92941C27.9168 8.51453 28.0453 8.10326 28.1627 7.68915C28.1903 7.5924 28.2618 7.50106 28.2197 7.35658C27.6936 7.74772 27.326 8.22917 27.11 8.82698C27.0883 8.88607 27.0695 8.9467 27.054 9.00759C27.0308 9.09841 26.989 9.17169 26.8827 9.14821C26.7697 9.12292 26.7725 9.0303 26.7994 8.94644C27.0019 8.31638 27.2078 7.68709 27.4122 7.05806C27.4382 6.9773 27.4888 6.92492 27.5739 6.94711C27.6606 6.96956 27.6797 7.04516 27.6586 7.12462C27.6222 7.26343 27.5793 7.40095 27.5141 7.62491Z" fill="#ECF5F9"/>
<path fill-rule="evenodd" clip-rule="evenodd" d="M15.419 8.43804C15.7036 8.19164 15.9227 7.99787 16.1471 7.81081C16.2429 7.73057 16.3584 7.62943 16.482 7.7298C16.6025 7.82732 16.5241 7.96046 16.4833 8.07863C16.2929 8.63413 16.104 9.19014 15.9629 9.76112C15.9379 9.86303 15.9361 10.0264 15.7635 9.9763C15.6174 9.93296 15.6809 9.80627 15.7083 9.70874C15.854 9.19788 16.0026 8.68676 16.1626 8.13152C15.5839 8.56575 15.1897 9.07765 14.9773 9.72603C14.9409 9.83698 14.9438 10.0248 14.7601 9.9536C14.62 9.8989 14.703 9.75261 14.7361 9.64811C14.9162 9.07842 15.0999 8.50925 15.2843 7.94033C15.3122 7.8539 15.33 7.73212 15.4608 7.76566C15.6141 7.80513 15.5522 7.9264 15.5292 8.02444C15.5026 8.13462 15.4706 8.2435 15.419 8.43804Z" fill="#ECF5F9"/>
<path fill-rule="evenodd" clip-rule="evenodd" d="M22.6221 9.03422C23.2403 8.69803 23.5927 8.15853 23.8159 7.5104C23.8572 7.39043 23.8711 7.1399 24.0597 7.2155C24.2713 7.30116 24.0956 7.49234 24.043 7.61902C23.8249 8.14176 23.554 8.64333 23.4103 9.19625C23.3886 9.28036 23.3512 9.36525 23.2408 9.34125C23.1301 9.31777 23.1268 9.23856 23.1585 9.14568C23.1747 9.09795 23.1812 9.04609 23.2062 8.92766C22.9818 9.0964 22.8089 9.23366 22.6288 9.35906C22.5362 9.42382 22.4317 9.50328 22.3117 9.42124C22.177 9.32938 22.2183 9.19367 22.2588 9.07756C22.4626 8.49162 22.7072 7.92193 22.9689 7.35972C23.0081 7.27432 23.0566 7.20492 23.1567 7.24362C23.2865 7.29341 23.2382 7.38759 23.2005 7.47867C22.9882 7.98179 22.7779 8.48569 22.5671 8.98958C22.5666 9.01409 22.5661 9.03809 22.5653 9.06234C22.5839 9.05331 22.6027 9.04351 22.6221 9.03422Z" fill="#ECF5F9"/>
<path fill-rule="evenodd" clip-rule="evenodd" d="M12.6237 9.65347C12.9844 9.13667 13.2946 8.69289 13.6047 8.24834C13.6467 8.18822 13.6865 8.12552 13.7311 8.06721C13.7835 7.99858 13.8423 7.92582 13.9388 7.99007C14.0351 8.05483 13.9956 8.1361 13.9458 8.20989C13.8516 8.34948 13.7554 8.48725 13.6594 8.62555C13.156 9.35185 12.6539 10.0797 12.1477 10.8039C12.0873 10.8904 12.0316 11.0527 11.8894 10.9556C11.7517 10.8612 11.86 10.7371 11.9351 10.662C12.3244 10.2729 12.3913 9.79666 12.3572 9.2778C12.3368 8.97386 12.3588 8.66735 12.366 8.36212C12.368 8.26253 12.3371 8.12707 12.4947 8.12217C12.6614 8.11701 12.6224 8.25659 12.6235 8.3536C12.6258 8.75352 12.6237 9.1537 12.6237 9.65347Z" fill="#ECF5F9"/>
<path fill-rule="evenodd" clip-rule="evenodd" d="M24.7125 8.8562C25.0902 8.31438 25.4233 7.83422 25.7605 7.35587C25.8279 7.26066 25.8887 7.08676 26.0412 7.20338C26.1689 7.30117 26.0358 7.40953 25.9752 7.49751C25.4027 8.32754 24.8291 9.15679 24.2522 9.98397C24.1851 10.0797 24.1167 10.252 23.9694 10.1408C23.8507 10.0505 23.9591 9.9205 24.0362 9.84284C24.4145 9.46124 24.479 8.99759 24.4465 8.48828C24.4225 8.11133 24.4472 7.73179 24.4519 7.35303C24.4532 7.25318 24.4725 7.1523 24.6031 7.16287C24.7189 7.17216 24.712 7.27227 24.712 7.35664C24.7125 7.82854 24.7125 8.30122 24.7125 8.8562Z" fill="#ECF5F9"/>
<path fill-rule="evenodd" clip-rule="evenodd" d="M8.77334 10.1863C8.96195 9.44217 9.22048 8.72102 9.48339 8.00169C9.5448 7.83424 9.60853 7.66756 9.6769 7.50269C9.71199 7.41858 9.74372 7.29783 9.86731 7.3435C10.0064 7.39536 9.95116 7.50605 9.91453 7.60874C9.66555 8.3113 9.41863 9.01361 9.17532 9.71772C9.11727 9.88569 9.07264 10.0593 9.02981 10.2322C9.00555 10.3305 8.98388 10.4319 8.85539 10.3976C8.75322 10.37 8.75889 10.2735 8.77334 10.1863Z" fill="#ECF5F9"/>
<path fill-rule="evenodd" clip-rule="evenodd" d="M25.9428 8.9462C26.0961 8.37574 26.2906 7.7916 26.5179 7.21804C26.5556 7.12206 26.618 7.08259 26.7119 7.12542C26.7973 7.16438 26.7878 7.23946 26.7589 7.31351C26.5368 7.87804 26.3569 8.45701 26.1931 9.04038C26.1681 9.13042 26.111 9.19157 26.0078 9.15752C25.9139 9.12681 25.9325 9.04631 25.9428 8.9462Z" fill="#ECF5F9"/>
<path fill-rule="evenodd" clip-rule="evenodd" d="M14.6831 8.05444C14.6668 8.10423 14.6531 8.15532 14.6343 8.20382C14.438 8.71159 14.2726 9.22968 14.1268 9.75421C14.0982 9.85639 14.084 10.0161 13.9175 9.96294C13.7759 9.91728 13.8412 9.79317 13.867 9.6941C14.0109 9.14685 14.1983 8.61354 14.398 8.08514C14.4302 8.00025 14.4586 7.89163 14.5848 7.91253C14.6518 7.92336 14.6833 7.98374 14.6831 8.05444Z" fill="#ECF5F9"/>
<path fill-rule="evenodd" clip-rule="evenodd" d="M3.99306 8.77176C3.97835 8.82001 3.96674 8.87187 3.9479 8.92037C3.74923 9.4302 3.58514 9.95061 3.43833 10.4775C3.41021 10.5794 3.39653 10.7399 3.22547 10.6767C3.07995 10.623 3.16045 10.5035 3.18496 10.4063C3.323 9.85463 3.51754 9.32132 3.71518 8.78853C3.74433 8.71061 3.77426 8.62392 3.88624 8.63708C3.96338 8.64662 3.98841 8.69977 3.99306 8.77176Z" fill="#ECF5F9"/>
<path fill-rule="evenodd" clip-rule="evenodd" d="M9.64939 10.0376C9.80832 9.45862 10.0011 8.86932 10.2325 8.29266C10.2627 8.21706 10.3261 8.17424 10.4103 8.20932C10.5013 8.24699 10.4895 8.3324 10.4639 8.39871C10.2459 8.96891 10.0656 9.55124 9.89785 10.1374C9.8754 10.2156 9.82561 10.277 9.74046 10.2603C9.63004 10.2388 9.63726 10.1452 9.64939 10.0376Z" fill="#ECF5F9"/>
<path fill-rule="evenodd" clip-rule="evenodd" d="M24.7139 1.44946C24.6914 1.46443 24.6483 1.47784 24.6458 1.49694C24.6406 1.54235 24.6765 1.56815 24.7216 1.57563C24.798 1.58776 24.8465 1.46262 24.9435 1.54028C24.985 1.57382 25.122 1.45307 25.0913 1.62362C25.0862 1.65381 25.097 1.7983 25.0294 1.70438C24.9502 1.59447 24.8243 1.91027 24.8197 1.65845C24.8186 1.57795 24.8248 1.48713 24.7139 1.44946Z" fill="#ECF5F9"/>
<path fill-rule="evenodd" clip-rule="evenodd" d="M14.9208 7.36849C14.8855 7.47866 14.8824 7.62186 14.7376 7.65824C14.6592 7.67784 14.5849 7.60999 14.6045 7.53181C14.6352 7.41003 14.6355 7.24671 14.8029 7.21807C14.8862 7.20336 14.9226 7.27999 14.9208 7.36849Z" fill="#ECF5F9"/>
<path fill-rule="evenodd" clip-rule="evenodd" d="M4.23049 8.10706C4.18405 8.20924 4.19385 8.36276 4.03543 8.38443C3.9459 8.39681 3.89301 8.31218 3.91726 8.24278C3.95751 8.12796 3.94152 7.95329 4.12806 7.94452C4.22972 7.93987 4.23152 8.02476 4.23049 8.10706Z" fill="#ECF5F9"/>
<path fill-rule="evenodd" clip-rule="evenodd" d="M26.8402 6.86309C26.729 6.85225 26.6854 6.79007 26.7034 6.71293C26.73 6.59811 26.7323 6.45156 26.883 6.41854C26.964 6.40048 27.0357 6.46292 27.0187 6.54419C26.9929 6.66932 26.9707 6.80942 26.8402 6.86309Z" fill="#ECF5F9"/>
<path fill-rule="evenodd" clip-rule="evenodd" d="M10.7253 7.65533C10.6794 7.75595 10.6943 7.91102 10.5374 7.94301C10.4487 7.96081 10.3919 7.89322 10.4105 7.80833C10.436 7.69016 10.4412 7.54232 10.5942 7.50878C10.6845 7.48865 10.723 7.55857 10.7253 7.65533Z" fill="#ECF5F9"/>
<path fill-rule="evenodd" clip-rule="evenodd" d="M6.32593 9.04372C6.34983 9.03359 6.374 9.0232 6.39764 9.01306C6.39453 9.0471 6.39167 9.0814 6.38907 9.11518C6.36802 9.09128 6.34672 9.06763 6.32593 9.04372Z" fill="#0186D2"/>
<path fill-rule="evenodd" clip-rule="evenodd" d="M22.622 9.03406C22.6026 9.04335 22.5838 9.05316 22.5645 9.06244C22.5652 9.03793 22.5657 9.01394 22.5663 8.98969C22.5851 9.00439 22.6034 9.01936 22.622 9.03406Z" fill="#0186D2"/>
</svg>
