<svg xmlns="http://www.w3.org/2000/svg" width="33" height="22" fill="none" viewBox="0 0 33 22"><path fill="gray" d="M32.9947 20.83C32.9947 21.4088 32.5326 21.8778 31.9619 21.8778H1.98252C1.41233 21.8778 0.949707 21.409 0.949707 20.83V1.20672C0.949707 0.628 1.41207 0.158936 1.98252 0.158936H31.9619C32.5324 0.158936 32.9947 0.628 32.9947 1.20672V20.83Z"/><path fill="#F8FBFC" fill-rule="evenodd" d="M20.192 6.80847C20.5531 6.55304 20.9262 6.45215 21.3326 6.47331C21.9295 6.5035 22.2734 6.7788 22.3492 7.3748C22.4623 8.27501 22.4364 9.18682 22.3761 10.0862C22.3482 10.5078 21.8975 10.2075 21.6493 10.279C21.4575 10.3334 21.3726 10.2202 21.3751 10.014C21.3825 9.38239 21.3784 8.75078 21.3774 8.11891C21.3769 7.98242 21.3748 7.84542 21.3657 7.70919C21.3497 7.45995 21.2164 7.33275 20.9687 7.31469C20.4605 7.27805 20.2301 7.48472 20.2301 7.98655C20.2301 8.65015 20.224 9.3135 20.2337 9.97633C20.2372 10.2067 20.1612 10.2947 19.9277 10.2888C19.0811 10.2674 19.2146 10.401 19.2082 9.58364C19.2009 8.6677 19.2141 7.7515 19.2021 6.83607C19.1986 6.58735 19.2751 6.48466 19.5208 6.51279C19.6233 6.52466 19.7294 6.52517 19.8319 6.51279C20.0351 6.48853 20.1747 6.5471 20.192 6.80847Z" clip-rule="evenodd"/><path fill="#F8FBFC" fill-rule="evenodd" d="M16.231 8.7706C16.231 9.24895 16.2257 9.62797 16.233 10.0067C16.2368 10.2033 16.1695 10.3246 15.965 10.2815C15.7259 10.2312 15.4228 10.4487 15.248 10.1035C15.2134 10.0354 15.1415 10.1154 15.0929 10.1419C14.9454 10.2209 14.7941 10.2828 14.6275 10.3109C13.7216 10.4642 13.0397 9.98867 13.2857 8.80053C13.3653 8.41841 13.6712 8.24684 14.0186 8.1506C14.2913 8.07526 14.5725 8.08274 14.8515 8.06158C14.9721 8.05204 15.1814 8.19291 15.2073 7.91116C15.2386 7.57394 15.1331 7.3745 14.8742 7.32677C14.7938 7.3118 14.7089 7.31464 14.6262 7.31748C14.3256 7.32625 14.0245 7.32806 13.7251 7.35257C13.5367 7.36856 13.4685 7.31025 13.4624 7.11365C13.4477 6.62627 13.4382 6.62162 13.9319 6.54061C14.4151 6.46088 14.9009 6.42166 15.3816 6.55635C15.8615 6.69077 16.1356 7.01354 16.2025 7.51486C16.2628 7.96535 16.2122 8.41841 16.231 8.7706ZM15.2493 9.01803C15.1529 8.92592 15.3615 8.69242 15.113 8.65656C14.9016 8.62611 14.6794 8.62482 14.4685 8.7061C14.2663 8.7835 14.2353 8.95946 14.2264 9.1411C14.2198 9.2874 14.216 9.45072 14.3765 9.52503C14.6328 9.64345 14.8869 9.57534 15.1265 9.46594C15.3198 9.37796 15.2028 9.186 15.2493 9.01803Z" clip-rule="evenodd"/><path fill="#F8FBFC" fill-rule="evenodd" d="M25.8437 8.88365C25.8437 9.26241 25.8384 9.64169 25.846 10.0212C25.8501 10.2054 25.787 10.3169 25.597 10.2818C25.3455 10.2349 25.0357 10.4387 24.845 10.1012C24.8175 10.0527 24.7354 10.1239 24.6832 10.1525C24.5266 10.2382 24.362 10.2976 24.1845 10.321C23.1942 10.4506 22.6591 9.83623 22.9073 8.77709C22.9905 8.42181 23.2733 8.25565 23.5968 8.15967C23.8781 8.07582 24.1695 8.07891 24.4599 8.0624C24.5947 8.05492 24.8257 8.17876 24.8221 7.87508C24.8191 7.62146 24.7959 7.37609 24.4813 7.32707C24.3694 7.30952 24.2534 7.31546 24.1392 7.31726C23.8903 7.32268 23.6415 7.33506 23.3923 7.33945C23.2722 7.341 23.0779 7.43001 23.0965 7.19909C23.1136 6.98856 22.9226 6.67636 23.2801 6.5889C23.787 6.46557 24.3076 6.42093 24.8249 6.51201C25.4826 6.62708 25.8155 7.03887 25.8394 7.74608C25.8524 8.12458 25.842 8.50411 25.842 8.88339C25.8422 8.88365 25.843 8.88365 25.8437 8.88365ZM24.8567 9.04258C24.7896 8.92364 24.964 8.69994 24.7349 8.65841C24.5258 8.62074 24.3005 8.6228 24.0897 8.7033C23.921 8.7678 23.8521 8.89836 23.8493 9.07097C23.8468 9.22551 23.7967 9.40767 23.9577 9.50442C24.2041 9.65227 24.4577 9.57228 24.7072 9.48378C24.9429 9.39993 24.8081 9.19765 24.8567 9.04258Z" clip-rule="evenodd"/><path fill="#F8FBFC" fill-rule="evenodd" d="M7.56901 7.79243C7.56901 7.08806 7.56697 6.38317 7.56977 5.67829C7.57129 5.30133 7.63869 5.23605 8.00467 5.23167C8.64913 5.22419 8.64913 5.22419 8.64913 5.87128C8.64913 7.16521 8.64938 8.45888 8.64887 9.75254C8.64887 10.1966 8.57817 10.274 8.15217 10.2717C7.48279 10.2691 7.57435 10.3362 7.56977 9.68546C7.56544 9.05462 7.56901 8.42353 7.56901 7.79243Z" clip-rule="evenodd"/><path fill="#F8FBFC" fill-rule="evenodd" d="M11.7604 7.72758C11.7604 6.99173 11.7665 6.25511 11.7566 5.51875C11.7535 5.3046 11.8113 5.22719 12.0351 5.22642C12.7652 5.22435 12.7652 5.21507 12.7652 5.9682C12.7652 7.29335 12.7596 8.61875 12.7703 9.94442C12.7721 10.1952 12.7174 10.2969 12.4471 10.2925C11.7604 10.2816 11.7601 10.2943 11.7601 9.58939C11.7604 8.96887 11.7604 8.34862 11.7604 7.72758Z" clip-rule="evenodd"/><path fill="#F8FBFC" fill-rule="evenodd" d="M16.8139 8.36722C16.8139 7.84139 16.8226 7.31531 16.8093 6.78974C16.8043 6.58204 16.8712 6.50025 17.0738 6.51238C17.2389 6.52296 17.4052 6.51367 17.5713 6.51573C17.6222 6.51676 17.7086 6.51238 17.7191 6.53689C17.8719 6.89217 18.0505 6.60965 18.2183 6.56346C18.4052 6.5116 18.6471 6.37512 18.7735 6.52734C18.9129 6.69505 18.816 6.97061 18.8165 7.1992C18.817 7.27067 18.759 7.30421 18.6883 7.30757C18.6265 7.31066 18.5644 7.31273 18.5024 7.31944C17.923 7.38007 17.8233 7.4905 17.8233 8.0718C17.8231 8.71322 17.8162 9.35515 17.8272 9.99656C17.831 10.2159 17.7582 10.2951 17.5416 10.2886C16.6603 10.2608 16.8315 10.4143 16.8155 9.56568C16.8076 9.16628 16.8139 8.76688 16.8139 8.36722Z" clip-rule="evenodd"/><path fill="#F8FBFC" fill-rule="evenodd" d="M9.11374 7.5934C8.94818 7.62642 8.93775 7.53251 8.94334 7.39215C8.98454 6.33972 10.0334 5.28187 11.0807 5.23517C11.2313 5.22795 11.2735 5.2682 11.2725 5.42455C11.2666 6.4566 10.1537 7.58333 9.11374 7.5934Z" clip-rule="evenodd"/><path fill="#F8FBFC" fill-rule="evenodd" d="M11.2712 10.1109C11.2857 10.2162 11.2567 10.2804 11.1064 10.2776C10.0555 10.2567 8.95933 9.14803 8.93848 8.08787C8.93543 7.92325 8.98807 7.89436 9.1338 7.90622C10.1852 7.99343 11.131 8.90499 11.2617 9.96464C11.2666 10.0057 11.2671 10.0482 11.2712 10.1109Z" clip-rule="evenodd"/><path fill="#ECF5F9" fill-rule="evenodd" d="M21.9594 12.0933C21.8007 12.0577 21.5909 12.2698 21.5439 12.0316C21.5032 11.8219 21.7598 11.8554 21.891 11.8141C22.1789 11.7238 22.4783 11.6877 22.7814 11.7267C23.0029 11.7553 23.2227 11.7992 23.3012 12.0515C23.3796 12.3041 23.2265 12.4697 23.0589 12.6217C23.0128 12.6633 22.9625 12.6999 22.9126 12.7399C22.9513 12.8637 23.0678 12.8297 23.1423 12.8632C23.5851 13.0629 23.7031 13.469 23.4187 13.8687C23.2102 14.1618 22.9065 14.3241 22.5868 14.4539C22.2384 14.5952 21.8699 14.659 21.4968 14.6879C21.1931 14.7116 21.0978 14.5823 21.2 14.2944C21.4251 13.6623 21.654 13.0314 21.8813 12.4003C21.9157 12.3046 21.9719 12.2148 21.9594 12.0933ZM21.4365 14.4012C21.878 14.4059 22.3709 14.2908 22.7097 14.1125C22.9045 14.0101 23.0884 13.8906 23.214 13.7028C23.3208 13.5441 23.3577 13.3743 23.2171 13.2115C23.0291 12.994 22.1252 12.9295 21.9147 13.1197C21.8864 13.1452 21.8735 13.1901 21.8595 13.2286C21.7206 13.6117 21.583 13.9951 21.4365 14.4012ZM22.6342 11.9702C22.4872 11.9973 22.3007 11.9251 22.2478 12.1446C22.1982 12.3521 21.9696 12.6253 22.0975 12.7355C22.2488 12.866 22.508 12.6583 22.7079 12.5598C22.8198 12.5046 22.9218 12.4326 22.9986 12.3302C23.108 12.1831 23.0632 12.0737 22.9032 12.0162C22.8178 11.9849 22.7214 11.9842 22.6342 11.9702Z" clip-rule="evenodd"/><path fill="#ECF5F9" fill-rule="evenodd" d="M7.99299 14.0433C7.50138 14.3993 7.08657 14.8124 6.96119 15.4466C6.94262 15.5403 6.90804 15.6484 6.78621 15.6215C6.65702 15.5932 6.68296 15.4758 6.70915 15.388C6.80503 15.0671 6.91465 14.75 7.00748 14.4282C7.03774 14.3227 7.12345 14.2244 7.0614 14.0657C6.65269 14.4285 6.25951 14.7784 6.07029 15.3032C6.03138 15.4115 5.99831 15.5222 5.95559 15.6293C5.92609 15.7015 5.87369 15.7544 5.78595 15.7294C5.69033 15.7015 5.7033 15.6202 5.71169 15.548C5.73407 15.3573 5.82588 15.1896 5.88997 15.0131C6.05528 14.5609 6.2089 14.1037 6.37014 13.6496C6.40091 13.5629 6.43194 13.4406 6.55045 13.4759C6.68906 13.5159 6.64862 13.6318 6.61022 13.7365C6.55732 13.8813 6.51256 14.0283 6.44669 14.2283C6.72823 14.0905 6.86328 13.8557 7.07513 13.7221C7.20255 13.6416 7.32971 13.47 7.48383 13.5938C7.63134 13.7117 7.46501 13.8578 7.43551 13.9917C7.42686 14.0309 7.41313 14.0688 7.39838 14.1191C7.51028 14.1617 7.55275 14.0722 7.60998 14.0275C7.80657 13.8727 7.99909 13.713 8.19594 13.5595C8.2758 13.4973 8.37321 13.4816 8.45764 13.5415C8.55988 13.6127 8.50698 13.7061 8.4701 13.7948C8.2407 14.347 8.05886 14.9156 7.89914 15.492C7.87091 15.5937 7.85133 15.7204 7.70636 15.678C7.57539 15.6401 7.62549 15.5199 7.6499 15.4373C7.77961 14.9948 7.91822 14.5552 8.05377 14.1145C8.05632 14.081 8.05911 14.0469 8.06217 14.0131C8.04004 14.0229 8.01639 14.0332 7.99299 14.0433Z" clip-rule="evenodd"/><path fill="#ECF5F9" fill-rule="evenodd" d="M4.26046 12.9709C4.43518 12.9898 4.63839 12.998 4.71417 13.2137C4.7831 13.4106 4.71443 13.5858 4.56336 13.7269C4.50461 13.7819 4.43442 13.8121 4.36753 13.7589C4.29683 13.7019 4.33014 13.6348 4.36651 13.5628C4.50944 13.2824 4.47231 13.2199 4.17144 13.2421C3.81106 13.2692 3.48349 13.3931 3.20145 13.6253C3.10607 13.7042 2.999 13.7922 3.02672 13.9382C3.05368 14.0801 3.19255 14.0892 3.29656 14.1173C3.57683 14.1926 3.86269 14.2458 4.14347 14.3206C4.56539 14.4328 4.70044 14.76 4.48986 15.1385C4.21926 15.6251 3.17779 16.1081 2.646 15.9954C2.39015 15.9414 2.24366 15.7895 2.22814 15.5211C2.21365 15.2755 2.46339 14.8271 2.63812 14.784C2.68644 14.7724 2.74493 14.7662 2.77698 14.823C2.81182 14.8849 2.79961 14.9458 2.75587 14.9981C2.66965 15.1026 2.57504 15.2004 2.52367 15.3315C2.42779 15.58 2.50765 15.7508 2.7607 15.7461C3.34921 15.7353 3.85354 15.5038 4.22841 15.0389C4.41585 14.8067 4.3421 14.6362 4.0481 14.5585C3.75766 14.4816 3.45933 14.4336 3.17144 14.3485C2.69356 14.2071 2.60607 13.8283 2.97077 13.4805C3.32708 13.1418 3.76656 12.9991 4.26046 12.9709Z" clip-rule="evenodd"/><path fill="#ECF5F9" fill-rule="evenodd" d="M31.0133 13.6035C30.8147 13.7593 30.6797 13.8927 30.5205 13.983C30.2494 14.1373 30.0533 14.0197 30.0245 13.7064C30.0034 13.482 30.0332 13.2655 30.1382 13.0632C30.4421 12.4757 30.9498 12.1199 31.51 11.8237C31.6047 11.7739 31.6853 11.8013 31.7649 11.8704C31.8435 11.938 31.846 12.0064 31.8066 12.0936C31.4645 12.8522 31.289 13.668 31.0268 14.4536C30.9765 14.6035 30.9037 14.7429 30.7989 14.8634C30.6209 15.069 30.3971 15.1606 30.1316 15.1196C30.009 15.1007 29.8091 15.1247 29.833 14.9299C29.8579 14.7284 30.0322 14.8548 30.1369 14.8623C30.344 14.8781 30.5075 14.8089 30.6217 14.6397C30.8226 14.3417 30.9047 13.999 31.0133 13.6035ZM31.4411 12.1999C31.1985 12.2943 30.9978 12.4391 30.8137 12.6078C30.5568 12.8434 30.3351 13.1045 30.2842 13.4683C30.2712 13.5648 30.2272 13.6987 30.3282 13.7547C30.4312 13.8133 30.5215 13.7077 30.5945 13.6394C31.0149 13.248 31.2478 12.7397 31.4411 12.1999Z" clip-rule="evenodd"/><path fill="#ECF5F9" fill-rule="evenodd" d="M19.0811 14.3694C18.9003 14.531 18.7807 14.6468 18.6518 14.751C18.5224 14.8563 18.3639 14.9053 18.2156 14.8235C18.075 14.7461 18.0653 14.5839 18.0605 14.4324C18.0513 14.1341 18.1589 13.8748 18.3247 13.639C18.6345 13.1999 19.0587 12.9021 19.5247 12.6565C19.6249 12.6036 19.7164 12.5941 19.81 12.6802C19.8988 12.761 19.8805 12.8449 19.841 12.9359C19.5262 13.6604 19.3441 14.4285 19.107 15.1791C18.9222 15.7648 18.5875 16.0081 18.117 15.9265C18.0086 15.9077 17.8553 15.908 17.8746 15.748C17.8982 15.5537 18.0519 15.6564 18.1472 15.6716C18.4265 15.7165 18.6083 15.5855 18.7334 15.3543C18.8881 15.0681 18.9705 14.7544 19.0811 14.3694ZM19.4776 13.0249C18.9506 13.3147 18.4639 13.6447 18.3275 14.2918C18.3077 14.3854 18.2652 14.5163 18.383 14.5743C18.4794 14.6218 18.558 14.5299 18.6246 14.4698C19.0529 14.082 19.2843 13.5701 19.4776 13.0249Z" clip-rule="evenodd"/><path fill="#ECF5F9" fill-rule="evenodd" d="M9.38234 13.6756C9.48839 13.583 9.57944 13.5002 9.6738 13.4215C9.82029 13.2984 9.98611 13.2306 10.1593 13.3451C10.3394 13.4641 10.3719 13.6573 10.3111 13.8511C10.0924 14.5456 9.66591 15.0828 9.01789 15.3924C8.7862 15.5029 8.65115 15.6223 8.59571 15.8625C8.56774 15.9856 8.52628 16.1053 8.47923 16.2219C8.42887 16.3458 8.44617 16.5932 8.25695 16.5305C8.03441 16.4575 8.20888 16.2575 8.25008 16.1285C8.47058 15.4378 8.70634 14.7536 8.936 14.0665C8.98585 13.9174 9.02527 13.7636 9.08351 13.6178C9.12929 13.5033 9.10767 13.2979 9.30197 13.334C9.4856 13.3681 9.33631 13.5482 9.38234 13.6756ZM8.90624 15.1385C9.44541 14.8689 9.82232 14.4471 10.0321 13.8743C10.0675 13.7788 10.1306 13.664 10.0189 13.5879C9.90879 13.5131 9.82843 13.6147 9.75111 13.6816C9.3096 14.0642 9.07613 14.5761 8.90624 15.1385Z" clip-rule="evenodd"/><path fill="#ECF5F9" fill-rule="evenodd" d="M12.685 13.725C12.6405 13.6806 12.5886 13.7121 12.539 13.7113C12.4276 13.71 12.2549 13.8217 12.2351 13.6264C12.2183 13.4633 12.4017 13.4626 12.5164 13.4522C12.7748 13.4298 12.9156 13.3 12.996 13.0495C13.0794 12.7891 13.2226 12.5528 13.4057 12.3474C13.5423 12.1947 13.7178 12.1134 13.9088 12.2024C14.1084 12.2961 14.1466 12.5082 14.1761 12.7089C14.1865 12.777 14.1496 12.8377 14.0838 12.856C13.9948 12.8807 13.9599 12.816 13.9261 12.743C13.8767 12.6374 13.9172 12.4511 13.7501 12.4475C13.5861 12.4437 13.5202 12.6088 13.4429 12.7306C13.3376 12.8957 13.2435 13.0683 13.2043 13.2887C13.3233 13.2773 13.4238 13.2649 13.5242 13.2587C13.5983 13.2541 13.6781 13.2554 13.6941 13.3521C13.7089 13.4404 13.6532 13.5095 13.5756 13.5054C12.9652 13.4724 12.8912 13.9512 12.7597 14.3749C12.598 14.8961 12.4426 15.4191 12.2768 15.9387C12.2374 16.0623 12.2636 16.3035 12.057 16.2375C11.8554 16.1727 12.0095 15.9774 12.04 15.8556C12.2066 15.1941 12.4217 14.5465 12.6481 13.903C12.6684 13.8465 12.7132 13.7938 12.685 13.725Z" clip-rule="evenodd"/><path fill="#ECF5F9" fill-rule="evenodd" d="M28.8783 12.6249C29.1702 12.3726 29.392 12.1749 29.6201 11.9858C29.7061 11.9154 29.8078 11.8155 29.9238 11.9058C30.0321 11.9894 29.9897 12.1189 29.9508 12.2273C29.744 12.8109 29.5571 13.4002 29.4098 14.0022C29.3849 14.1031 29.3556 14.1965 29.2313 14.1647C29.0932 14.1299 29.1395 14.0097 29.1616 13.9294C29.2753 13.5145 29.4019 13.1033 29.5176 12.6892C29.5449 12.5924 29.6153 12.5011 29.5739 12.3566C29.0553 12.7477 28.6929 13.2292 28.48 13.827C28.4586 13.8861 28.4401 13.9467 28.4248 14.0076C28.4019 14.0984 28.3607 14.1717 28.2559 14.1482C28.1445 14.1229 28.1473 14.0303 28.1738 13.9464C28.3734 13.3164 28.5764 12.6871 28.7778 12.0581C28.8035 11.9773 28.8533 11.9249 28.9373 11.9471C29.0227 11.9696 29.0415 12.0452 29.0207 12.1246C28.9848 12.2634 28.9426 12.401 28.8783 12.6249Z" clip-rule="evenodd"/><path fill="#ECF5F9" fill-rule="evenodd" d="M16.9561 13.438C17.2366 13.1916 17.4525 12.9979 17.6738 12.8108C17.7682 12.7306 17.8821 12.6294 18.0039 12.7298C18.1227 12.8273 18.0454 12.9605 18.0052 13.0786C17.8175 13.6341 17.6313 14.1901 17.4922 14.7611C17.4675 14.863 17.4658 15.0264 17.2956 14.9763C17.1517 14.933 17.2142 14.8063 17.2412 14.7087C17.3849 14.1979 17.5314 13.6868 17.6891 13.1315C17.1186 13.5658 16.73 14.0776 16.5207 14.726C16.4848 14.837 16.4876 15.0248 16.3065 14.9536C16.1684 14.8989 16.2503 14.7526 16.2829 14.6481C16.4604 14.0784 16.6415 13.5092 16.8233 12.9403C16.8508 12.8539 16.8684 12.7321 16.9973 12.7657C17.1484 12.8051 17.0873 12.9264 17.0647 13.0244C17.0385 13.1346 17.007 13.2435 16.9561 13.438Z" clip-rule="evenodd"/><path fill="#ECF5F9" fill-rule="evenodd" d="M24.056 14.0342C24.6654 13.698 25.0128 13.1585 25.2328 12.5104C25.2735 12.3904 25.2872 12.1399 25.4731 12.2155C25.6817 12.3012 25.5085 12.4923 25.4566 12.619C25.2417 13.1418 24.9747 13.6433 24.833 14.1962C24.8116 14.2804 24.7748 14.3652 24.6659 14.3413C24.5568 14.3178 24.5535 14.2386 24.5848 14.1457C24.6008 14.0979 24.6072 14.0461 24.6318 13.9277C24.4106 14.0964 24.2402 14.2337 24.0626 14.3591C23.9713 14.4238 23.8683 14.5033 23.7501 14.4212C23.6173 14.3294 23.658 14.1937 23.6979 14.0776C23.8989 13.4916 24.14 12.9219 24.3978 12.3597C24.4365 12.2743 24.4843 12.2049 24.583 12.2436C24.7109 12.2934 24.6634 12.3876 24.6262 12.4787C24.4169 12.9818 24.2096 13.4857 24.0019 13.9896C24.0014 14.0141 24.0008 14.0381 24.0001 14.0623C24.0184 14.0533 24.037 14.0435 24.056 14.0342Z" clip-rule="evenodd"/><path fill="#ECF5F9" fill-rule="evenodd" d="M14.2008 14.6535C14.5563 14.1367 14.862 13.6929 15.1677 13.2483C15.2092 13.1882 15.2484 13.1255 15.2924 13.0672C15.344 12.9986 15.402 12.9258 15.4971 12.9901C15.592 13.0548 15.553 13.1361 15.504 13.2099C15.4111 13.3495 15.3163 13.4873 15.2217 13.6255C14.7255 14.3518 14.2306 15.0797 13.7316 15.8039C13.6721 15.8904 13.6171 16.0527 13.477 15.9556C13.3412 15.8612 13.448 15.7371 13.522 15.662C13.9058 15.2729 13.9717 14.7967 13.9381 14.2778C13.918 13.9739 13.9396 13.6673 13.9467 13.3621C13.9488 13.2625 13.9182 13.1271 14.0736 13.1222C14.2379 13.117 14.1995 13.2566 14.2005 13.3536C14.2028 13.7535 14.2008 14.1537 14.2008 14.6535Z" clip-rule="evenodd"/><path fill="#ECF5F9" fill-rule="evenodd" d="M26.1166 13.8562C26.489 13.3144 26.8173 12.8342 27.1497 12.3559C27.2161 12.2607 27.2761 12.0868 27.4264 12.2034C27.5523 12.3012 27.4211 12.4095 27.3613 12.4975C26.797 13.3275 26.2316 14.1568 25.6629 14.984C25.5968 15.0797 25.5294 15.252 25.3842 15.1408C25.2672 15.0505 25.374 14.9205 25.45 14.8428C25.8229 14.4612 25.8865 13.9976 25.8544 13.4883C25.8308 13.1113 25.8552 12.7318 25.8598 12.353C25.861 12.2532 25.8801 12.1523 26.0088 12.1629C26.123 12.1722 26.1161 12.2723 26.1161 12.3566C26.1166 12.8285 26.1166 13.3012 26.1166 13.8562Z" clip-rule="evenodd"/><path fill="#ECF5F9" fill-rule="evenodd" d="M10.4052 15.1863C10.5911 14.4422 10.8459 13.721 11.1051 13.0017C11.1656 12.8342 11.2284 12.6676 11.2958 12.5027C11.3304 12.4186 11.3617 12.2978 11.4835 12.3435C11.6206 12.3954 11.5662 12.506 11.5301 12.6087C11.2846 13.3113 11.0413 14.0136 10.8014 14.7177C10.7442 14.8857 10.7002 15.0593 10.658 15.2322C10.6341 15.3305 10.6127 15.4319 10.4861 15.3976C10.3853 15.37 10.3909 15.2735 10.4052 15.1863Z" clip-rule="evenodd"/><path fill="#ECF5F9" fill-rule="evenodd" d="M27.3295 13.9462C27.4806 13.3757 27.6724 12.7916 27.8964 12.218C27.9336 12.1221 27.9951 12.0826 28.0877 12.1254C28.1719 12.1644 28.1624 12.2395 28.134 12.3135C27.915 12.878 27.7377 13.457 27.5762 14.0404C27.5516 14.1304 27.4953 14.1916 27.3936 14.1575C27.301 14.1268 27.3194 14.0463 27.3295 13.9462Z" clip-rule="evenodd"/><path fill="#ECF5F9" fill-rule="evenodd" d="M16.2306 13.0544C16.2145 13.1042 16.2011 13.1553 16.1825 13.2038C15.989 13.7116 15.8259 14.2297 15.6822 14.7542C15.654 14.8564 15.64 15.0161 15.476 14.9629C15.3364 14.9173 15.4007 14.7932 15.4261 14.6941C15.568 14.1469 15.7527 13.6135 15.9495 13.0851C15.9813 13.0003 16.0093 12.8916 16.1337 12.9125C16.1998 12.9234 16.2308 12.9837 16.2306 13.0544Z" clip-rule="evenodd"/><path fill="#ECF5F9" fill-rule="evenodd" d="M5.69316 13.7718C5.67866 13.82 5.66722 13.8719 5.64865 13.9204C5.45282 14.4302 5.29107 14.9506 5.14636 15.4775C5.11864 15.5794 5.10516 15.7399 4.93654 15.6767C4.7931 15.623 4.87245 15.5035 4.89661 15.4063C5.03267 14.8546 5.22444 14.3213 5.41925 13.7885C5.44799 13.7106 5.47749 13.6239 5.58787 13.6371C5.66391 13.6466 5.68858 13.6998 5.69316 13.7718Z" clip-rule="evenodd"/><path fill="#ECF5F9" fill-rule="evenodd" d="M11.2688 15.0376C11.4255 14.4586 11.6154 13.8693 11.8436 13.2927C11.8733 13.2171 11.9359 13.1742 12.0188 13.2093C12.1086 13.247 12.0969 13.3324 12.0717 13.3987C11.8568 13.9689 11.679 14.5512 11.5137 15.1374C11.4916 15.2156 11.4425 15.277 11.3586 15.2603C11.2497 15.2388 11.2568 15.1452 11.2688 15.0376Z" clip-rule="evenodd"/><path fill="#ECF5F9" fill-rule="evenodd" d="M26.1182 6.44952C26.096 6.46449 26.0536 6.47791 26.051 6.497C26.0459 6.54241 26.0813 6.56821 26.1258 6.57569C26.2011 6.58782 26.2489 6.46268 26.3445 6.54034C26.3855 6.57389 26.5205 6.45314 26.4902 6.62368C26.4852 6.65387 26.4958 6.79836 26.4292 6.70444C26.3511 6.59453 26.227 6.91033 26.2224 6.65851C26.2214 6.57801 26.2275 6.48719 26.1182 6.44952Z" clip-rule="evenodd"/><path fill="#ECF5F9" fill-rule="evenodd" d="M16.4651 12.3685C16.4302 12.4787 16.4272 12.6219 16.2845 12.6582C16.2072 12.6778 16.134 12.61 16.1533 12.5318C16.1835 12.41 16.1838 12.2467 16.3489 12.2181C16.431 12.2034 16.4669 12.28 16.4651 12.3685Z" clip-rule="evenodd"/><path fill="#ECF5F9" fill-rule="evenodd" d="M5.92722 13.1071C5.88145 13.2092 5.89111 13.3628 5.73495 13.3844C5.6467 13.3968 5.59457 13.3122 5.61847 13.2428C5.65815 13.128 5.64238 12.9533 5.82626 12.9445C5.92646 12.9399 5.92824 13.0248 5.92722 13.1071Z" clip-rule="evenodd"/><path fill="#ECF5F9" fill-rule="evenodd" d="M28.2139 11.8631C28.1043 11.8523 28.0613 11.7901 28.0791 11.7129C28.1053 11.5981 28.1076 11.4516 28.2561 11.4185C28.336 11.4005 28.4067 11.4629 28.3899 11.5442C28.3644 11.6693 28.3426 11.8094 28.2139 11.8631Z" clip-rule="evenodd"/><path fill="#ECF5F9" fill-rule="evenodd" d="M12.3295 12.6553C12.2842 12.756 12.299 12.911 12.1443 12.943C12.0569 12.9608 12.0009 12.8932 12.0192 12.8083C12.0444 12.6902 12.0495 12.5423 12.2003 12.5088C12.2893 12.4887 12.3272 12.5586 12.3295 12.6553Z" clip-rule="evenodd"/><path fill="#0186D2" fill-rule="evenodd" d="M7.99292 14.0437C8.01648 14.0336 8.0403 14.0232 8.06361 14.0131C8.06054 14.0471 8.05772 14.0814 8.05516 14.1152C8.03441 14.0913 8.01341 14.0676 7.99292 14.0437Z" clip-rule="evenodd"/><path fill="#0186D2" fill-rule="evenodd" d="M24.057 14.0341C24.0377 14.0434 24.0189 14.0532 23.9995 14.0624C24.0003 14.0379 24.0008 14.0139 24.0013 13.9897C24.0202 14.0044 24.0385 14.0194 24.057 14.0341Z" clip-rule="evenodd"/></svg>