<svg width="35" height="26" viewBox="0 0 35 26" fill="none" xmlns="http://www.w3.org/2000/svg">
<path d="M31.0051 25.9089H3.80075C1.84379 25.9089 0.257324 24.3226 0.257324 22.3655V3.54343C0.257324 1.58647 1.84379 0 3.80075 0H31.0051C32.9622 0 34.5486 1.58647 34.5486 3.54343V22.3655C34.5486 24.3226 32.9622 25.9089 31.0051 25.9089Z" fill="white"/>
<path d="M23.1183 5.71509C27.1159 5.71509 30.3575 8.95599 30.3575 12.9543C30.3575 16.9527 27.1159 20.1936 23.1183 20.1936C20.7949 20.1936 18.7266 19.0993 17.4031 17.3977C18.3587 16.1709 18.9271 14.6294 18.9271 12.9543C18.9271 11.2794 18.3587 9.73783 17.4031 8.51097C18.7266 6.80936 20.7949 5.71509 23.1183 5.71509Z" fill="#F79F1A"/>
<path d="M17.403 8.51099C18.3585 9.73785 18.927 11.2794 18.927 12.9544C18.927 14.6293 18.3585 16.1709 17.403 17.3978C16.4474 16.1709 15.8789 14.6294 15.8789 12.9544C15.8789 11.2794 16.4474 9.73785 17.403 8.51099Z" fill="#FF5F01"/>
<path d="M11.6877 5.71521C14.0112 5.71521 16.0793 6.80948 17.403 8.51109C16.4474 9.73795 15.8789 11.2795 15.8789 12.9545C15.8789 14.6294 16.4474 16.171 17.403 17.3979C16.0793 19.0995 14.0112 20.1937 11.6877 20.1937C7.68939 20.1937 4.44849 16.9528 4.44849 12.9545C4.44849 8.95611 7.68939 5.71521 11.6877 5.71521Z" fill="#EA001B"/>
<path d="M17.3787 12.8387V13.1187H17.4276V12.8387H17.543V12.7901H17.2632V12.8387H17.3787Z" fill="black"/>
<path d="M28.7528 12.5247C28.2537 11.8614 26.9331 12.2143 26.9331 13.3706C26.9331 14.5513 28.3024 14.8677 28.7528 14.2166V14.4965H29.2335V11.3503H28.7528V12.5247ZM28.1076 14.0826C27.6938 14.0826 27.4261 13.7662 27.4261 13.3706C27.4261 12.975 27.6939 12.6587 28.1076 12.6587C28.5094 12.6587 28.7893 12.9749 28.7893 13.3706C28.7893 13.7846 28.5094 14.0826 28.1076 14.0826Z" fill="black"/>
<path d="M10.5203 12.5248C10.356 12.3239 10.1248 12.1961 9.80821 12.1961C9.18137 12.1961 8.70068 12.6952 8.70068 13.3706C8.70068 14.0523 9.18145 14.5452 9.80821 14.5452C10.1248 14.5452 10.356 14.4295 10.5203 14.2165V14.4965H11.0011V12.2569H10.5203V12.5248ZM9.8752 14.0827C9.44305 14.0827 9.19364 13.7663 9.19364 13.3707C9.19364 12.9751 9.44305 12.6587 9.8752 12.6587C10.2707 12.6587 10.5324 12.975 10.5385 13.3707C10.5385 13.7846 10.2708 14.0827 9.8752 14.0827Z" fill="black"/>
<path d="M17.0441 12.1901C16.3992 12.1901 15.9365 12.671 15.9365 13.3647C15.9365 14.6123 17.3119 14.8193 17.9935 14.2289L17.7623 13.8638C17.2876 14.2533 16.5694 14.2167 16.4296 13.5656H18.103C18.103 12.5797 17.6527 12.1901 17.0441 12.1901ZM16.4478 13.17C16.4965 12.8535 16.6972 12.6406 17.0258 12.6406C17.3422 12.6406 17.5554 12.8231 17.6101 13.17H16.4478Z" fill="black"/>
<path d="M24.2311 12.5249C23.726 11.8555 22.4114 12.2328 22.4114 13.3708C22.4114 14.5393 23.7747 14.8739 24.2311 14.2168V14.4967H24.7302V12.2571H24.2311V12.5249ZM23.586 14.0828C23.1722 14.0828 22.9227 13.7664 22.9227 13.3708C22.9227 12.9752 23.1722 12.6589 23.586 12.6589C23.9997 12.6589 24.2675 12.9751 24.2675 13.3708C24.2675 13.7848 23.9997 14.0828 23.586 14.0828Z" fill="black"/>
<path d="M7.37407 12.1964C7.0941 12.1964 6.79599 12.2815 6.59505 12.5918C6.44897 12.3424 6.19956 12.1964 5.8526 12.1964C5.62133 12.1964 5.39013 12.2815 5.20762 12.525V12.2572H4.7085V14.4907H5.20755C5.20755 13.3405 5.05537 12.6529 5.75522 12.6529C6.37596 12.6529 6.25427 13.2736 6.25427 14.4907H6.73503C6.73503 13.3771 6.58286 12.6529 7.2827 12.6529C7.90345 12.6529 7.78175 13.2614 7.78175 14.4907H8.28073V13.091H8.26854C8.26854 12.5613 7.92181 12.2146 7.37407 12.1964Z" fill="black"/>
<path d="M12.072 12.8899C12.072 12.5429 12.7962 12.5978 13.1978 12.823L13.3986 12.4274C12.8266 12.0562 11.5608 12.0623 11.5608 12.9265C11.5608 13.7967 12.9544 13.4316 12.9544 13.8394C12.9544 14.2228 12.1328 14.1923 11.6948 13.8881L11.4817 14.2715C12.1632 14.7338 13.4655 14.6367 13.4655 13.815C13.4656 12.9022 12.072 13.3159 12.072 12.8899Z" fill="black"/>
<path d="M14.7438 13.7175V12.7073H15.541V12.257H14.7438V11.5756H14.2448V12.257H13.7822V12.7012H14.2448V13.7175C14.2448 14.7887 15.2975 14.5938 15.62 14.3809L15.4861 13.967C15.255 14.0947 14.7438 14.2347 14.7438 13.7175Z" fill="black"/>
<path d="M19.101 12.5247V12.2569H18.6018V14.4904H19.101V13.2307C19.101 12.5247 19.6792 12.616 19.88 12.7195L20.0259 12.2569C19.7461 12.1353 19.3201 12.1474 19.101 12.5247Z" fill="black"/>
<path d="M21.9307 12.8595L22.1618 12.4639C21.4561 11.9101 20.1721 12.2144 20.1721 13.3768C20.1721 14.5817 21.5352 14.8251 22.1618 14.2896L21.9307 13.8941C21.3708 14.2896 20.6709 14.0523 20.6709 13.3707C20.6709 12.6769 21.3769 12.4516 21.9307 12.8595Z" fill="black"/>
<path d="M25.856 12.5248V12.257H25.3752V14.4905H25.856V13.2307C25.856 12.5612 26.4038 12.6039 26.635 12.7196L26.7811 12.257C26.635 12.184 26.1116 12.0805 25.856 12.5248Z" fill="black"/>
<path d="M30.0796 14.2166C30.0613 14.1984 30.0491 14.1678 30.0308 14.1496C30.0125 14.1314 29.9821 14.1194 29.9639 14.1009C29.9335 14.1009 29.8969 14.0826 29.8665 14.0826C29.8483 14.0826 29.8178 14.1009 29.7814 14.1009C29.7509 14.1193 29.7326 14.1313 29.7144 14.1496C29.684 14.1678 29.6658 14.1984 29.6658 14.2166C29.6475 14.247 29.6475 14.2837 29.6475 14.314C29.6475 14.3322 29.6475 14.3627 29.6658 14.399C29.6658 14.4173 29.684 14.4479 29.7144 14.4661C29.7326 14.4843 29.7449 14.4965 29.7814 14.5148C29.8118 14.533 29.8483 14.533 29.8665 14.533C29.8969 14.533 29.9335 14.533 29.9639 14.5148C29.9821 14.4966 30.0126 14.4844 30.0308 14.4661C30.049 14.4478 30.0612 14.4173 30.0796 14.399C30.0978 14.3626 30.0978 14.3322 30.0978 14.314C30.0978 14.2836 30.0978 14.247 30.0796 14.2166Z" fill="black"/>
<path d="M17.5856 12.7901H17.5005L17.403 13.0031L17.3057 12.7901H17.2205V13.1187H17.2692V12.8691L17.3665 13.0823H17.4334L17.5187 12.8691V13.1187H17.5856V12.7901Z" fill="black"/>
</svg>
