<svg width="25" height="22" viewBox="0 0 25 22" fill="none" xmlns="http://www.w3.org/2000/svg">
<g clip-path="url(#clip0_68:10833)">
<path fill-rule="evenodd" clip-rule="evenodd" d="M4.53768 0.96228H20.2504C22.3597 0.96228 24.0854 2.42657 24.0854 4.21625V17.5482C24.0854 19.3379 22.3597 20.8022 20.2504 20.8022H4.53768C2.4284 20.8022 0.702637 19.3379 0.702637 17.5482V4.21625C0.702637 2.42657 2.4284 0.96228 4.53768 0.96228Z" fill="#D9DADA"/>
<path fill-rule="evenodd" clip-rule="evenodd" d="M8.89868 15.4238L10.9039 7.51669H15.0786C15.0786 7.51669 17.4289 7.37259 17.5549 9.40399C17.6809 11.4354 15.7086 12.3233 14.7663 12.3233C13.824 12.3233 11.6599 12.3233 11.6599 12.3233L10.8819 15.4052L10.219 15.4238H8.89868Z" fill="#5FCCFF"/>
<path fill-rule="evenodd" clip-rule="evenodd" d="M7.22217 14.2478L9.22735 6.3406H13.4021C13.4021 6.3406 15.7524 6.1965 15.8784 8.22791C16.0044 10.2593 14.0321 11.1472 13.0898 11.1472C12.1475 11.1472 9.9834 11.1472 9.9834 11.1472L9.20543 14.2292L8.54252 14.2478H7.22217Z" fill="#38447E"/>
<path fill-rule="evenodd" clip-rule="evenodd" d="M9.98877 11.1332L10.9147 7.48407H14.9853L15.6756 7.52126C15.6756 7.52126 15.8838 7.80482 15.8838 8.3394C15.8838 8.87398 15.6975 9.53407 15.1277 10.2081C14.5634 10.8868 13.5334 11.1518 12.7993 11.1518C12.0652 11.1518 9.98877 11.1332 9.98877 11.1332Z" fill="#212C63"/>
</g>
<defs>
<clipPath id="clip0_68:10833">
<rect width="23.7499" height="20.1514" fill="white" transform="translate(0.521729 0.878662)"/>
</clipPath>
</defs>
</svg>
