<svg width="20" height="17" viewBox="0 0 20 17" fill="none" xmlns="http://www.w3.org/2000/svg">
<path d="M0 14.7957C2.21764 15.0012 4.20164 14.4371 5.99952 13.0672C5.72231 13.0028 5.46886 13.0028 5.2273 12.9423C3.81355 12.5999 2.83541 11.7336 2.2612 10.3839C2.23348 10.3154 2.1622 10.2308 2.22556 10.1623C2.27308 10.1099 2.36417 10.1542 2.43149 10.1623C2.93046 10.2147 3.42943 10.1986 3.92048 10.0817C3.9284 9.99309 3.86503 10.0011 3.81751 9.98503C2.60177 9.65465 1.71867 8.91734 1.14842 7.77713C0.887057 7.25336 0.744494 6.70541 0.728654 6.11717C0.720734 5.88752 0.732614 5.88349 0.942498 5.98422C1.44147 6.22596 1.9642 6.36294 2.56217 6.39115C2.28892 6.16552 2.0434 5.9681 1.83352 5.73039C1.19594 5.00919 0.839536 4.16713 0.764295 3.19614C0.704893 2.40645 0.867257 1.66914 1.20386 0.960034C1.2791 0.802902 1.34643 0.81499 1.44147 0.931831C2.1028 1.75375 2.87502 2.45077 3.72643 3.05512C4.36004 3.50637 5.03326 3.88107 5.74211 4.19936C6.67669 4.61435 7.64691 4.89235 8.65277 5.05754C8.96957 5.10992 9.2943 5.12201 9.61506 5.15424C9.77743 5.17036 9.82099 5.12201 9.78931 4.95279C9.62694 4.08252 9.73783 3.23643 10.1101 2.44271C10.7476 1.08896 11.8169 0.267044 13.2702 0.0494767C14.5612 -0.143916 15.7215 0.230782 16.6838 1.15343C16.8303 1.29444 16.961 1.3307 17.159 1.27833C17.9352 1.07688 18.6757 0.790815 19.3727 0.387914C19.3925 0.375827 19.4163 0.371798 19.4875 0.343595C19.1628 1.31459 18.5886 2.03175 17.7847 2.5797C17.9708 2.61596 18.5213 2.51523 18.9014 2.39436C19.2658 2.27752 19.6301 2.17277 19.9786 2.01564C20.0261 2.06801 19.9825 2.09622 19.9627 2.12442C19.4994 2.78921 18.9688 3.38953 18.3352 3.88913C18.248 3.95762 18.1649 4.03417 18.0738 4.09864C18.0065 4.14699 18.0025 4.20742 18.0065 4.27591C18.0342 5.00919 17.9827 5.73845 17.8797 6.45964C17.7728 7.19695 17.5907 7.91411 17.3491 8.61919C17.1511 9.19534 16.9174 9.75537 16.6402 10.2993C15.9551 11.6369 15.0641 12.8134 13.9513 13.8166C12.7673 14.8803 11.4209 15.6458 9.91603 16.1212C8.97749 16.4194 8.01519 16.5926 7.02913 16.645C6.2688 16.6853 5.51243 16.6732 4.76001 16.5765C3.68287 16.4435 2.64533 16.1454 1.64739 15.7103C1.13654 15.4887 0.653413 15.2227 0.170283 14.9447C0.102962 14.9165 0.0356407 14.8843 0 14.7957Z" fill="#A7A7A7"/>
</svg>
