<svg xmlns="http://www.w3.org/2000/svg" width="14" height="14" fill="none" viewBox="0 0 14 14"><path fill="#000" d="M7.04349 7.83751L8.02457 6.89273L4.58036 3.57595L3.59929 4.52073L7.04349 7.83751ZM11.9628 2.15543C11.3184 1.53109 10.5519 1.03609 9.70744 0.699083C8.86302 0.36208 7.95755 0.189779 7.04349 0.192163H6.34769V2.87239H7.73929V1.57248C8.98716 1.72436 10.1448 2.27876 11.0236 3.14533C11.9025 4.0119 12.4506 5.13955 12.5787 6.34451C12.7069 7.54947 12.4075 8.7607 11.7293 9.78082C11.0511 10.8009 10.0342 11.5698 8.84419 11.9621C7.6542 12.3544 6.36131 12.3471 5.17621 11.9412C3.99112 11.5354 2.9837 10.755 2.31812 9.72719C1.65253 8.69941 1.36803 7.48485 1.51097 6.28144C1.65391 5.07802 2.21587 3.9567 3.10527 3.10021L3.59929 2.63117L2.61821 1.67969L2.12419 2.15543C1.45963 2.77354 0.929559 3.51291 0.564897 4.3304C0.200236 5.1479 0.00829096 6.02715 0.000262711 6.91684C-0.00776553 7.80654 0.168284 8.68887 0.518138 9.51234C0.867992 10.3358 1.38464 11.0839 2.03795 11.7131C2.69125 12.3422 3.46813 12.8398 4.32324 13.1767C5.17835 13.5136 6.09458 13.6831 7.01845 13.6754C7.94233 13.6677 8.85536 13.4828 9.70426 13.1316C10.5532 12.7805 11.3209 12.27 11.9628 11.63C13.2672 10.3735 14 8.66948 14 6.89273C14 5.11598 13.2672 3.41197 11.9628 2.15543Z"/></svg>