<svg width="43" height="10" viewBox="0 0 43 10" fill="none" xmlns="http://www.w3.org/2000/svg">
<path d="M2.94351 0.5448L4.72042 5.24948L6.46249 0.5448H8.51814L5.45209 7.52288H3.91907L0.853027 0.5448H2.94351Z" fill="#FF5B24"/>
<path d="M13.1522 6.41789C14.4413 6.41789 15.173 5.84954 15.8698 5.02859C16.2531 4.58654 16.7409 4.49182 17.0893 4.74442C17.4377 4.99702 17.4725 5.47064 17.0893 5.91269C16.0789 7.11254 14.7898 7.83877 13.1522 7.83877C11.3753 7.83877 9.80743 6.95467 8.72735 5.40749C8.41378 4.99702 8.48346 4.55497 8.83188 4.33394C9.18029 4.11292 9.70291 4.20764 10.0165 4.64969C10.783 5.69167 11.8282 6.41789 13.1522 6.41789ZM15.5563 2.53416C15.5563 3.10252 15.0685 3.48142 14.511 3.48142C13.9536 3.48142 13.4658 3.10252 13.4658 2.53416C13.4658 1.96581 13.9536 1.58691 14.511 1.58691C15.0685 1.58691 15.5563 1.99739 15.5563 2.53416Z" fill="#FF5B24"/>
<path d="M20.4688 0.544736V1.49199C20.9914 0.828911 21.7927 0.355286 22.9773 0.355286C24.4755 0.355286 26.2176 1.49199 26.2176 3.92326C26.2176 6.48084 24.5452 7.71227 22.8031 7.71227C21.8973 7.71227 21.0611 7.39652 20.4339 6.60714V9.95409H18.5525V0.544736H20.4688ZM20.4688 4.01799C20.4688 5.43886 21.3746 6.19667 22.385 6.19667C23.3606 6.19667 24.3362 5.50201 24.3362 4.01799C24.3362 2.56554 23.3606 1.87089 22.385 1.87089C21.4095 1.87089 20.4688 2.53396 20.4688 4.01799Z" fill="#FF5B24"/>
<path d="M29.5276 0.544736V1.49199C30.0502 0.828911 30.8516 0.355286 32.0362 0.355286C33.5344 0.355286 35.2764 1.49199 35.2764 3.92326C35.2764 6.48084 33.604 7.71227 31.862 7.71227C30.9561 7.71227 30.1199 7.39652 29.4928 6.60714V9.95409H27.6113V0.544736H29.5276ZM29.5276 4.01799C29.5276 5.43886 30.4335 6.19667 31.4439 6.19667C32.4194 6.19667 33.395 5.50201 33.395 4.01799C33.395 2.56554 32.4194 1.87089 31.4439 1.87089C30.4335 1.87089 29.5276 2.53396 29.5276 4.01799Z" fill="#FF5B24"/>
<path d="M39.283 0.355286C40.8509 0.355286 41.9658 1.01836 42.4536 2.66026L40.7464 2.91286C40.7115 2.09191 40.1541 1.80774 39.3179 1.80774C38.6907 1.80774 38.203 2.06034 38.203 2.47081C38.203 2.78656 38.4469 3.10231 39.1785 3.22861L40.4677 3.44964C41.7219 3.67066 42.4188 4.42846 42.4188 5.43886C42.4188 6.95447 40.9206 7.71227 39.4921 7.71227C37.9939 7.71227 36.3215 7.01761 36.0776 5.31256L37.7849 5.05996C37.8894 5.94406 38.4817 6.25981 39.4573 6.25981C40.1889 6.25981 40.6767 6.00721 40.6767 5.59674C40.6767 5.21784 40.4328 4.93366 39.6315 4.80736L38.4469 4.61791C37.1926 4.39689 36.4261 3.60751 36.4261 2.59711C36.4609 1.01836 38.0288 0.355286 39.283 0.355286Z" fill="#FF5B24"/>
</svg>
