<svg width="46" height="18" viewBox="0 0 46 18" fill="none" xmlns="http://www.w3.org/2000/svg">
<path fill-rule="evenodd" clip-rule="evenodd" d="M18.5046 4.33483L16.2249 17.5452H19.8722L22.1521 4.33483H18.5046ZM13.1562 4.33483L9.67881 13.4208L9.26747 11.4643L9.26776 11.4649L9.17712 11.0264C8.75626 10.1712 7.78155 8.54569 5.94102 7.1585C5.39688 6.74847 4.84837 6.39853 4.31812 6.09962L7.47853 17.5452H11.2787L17.0818 4.33483H13.1562ZM27.3909 8.00228C27.3909 6.50873 30.943 6.70065 32.5038 7.51164L33.0243 4.67441C33.0243 4.67441 31.418 4.09839 29.7437 4.09839C27.9336 4.09839 23.6353 4.8448 23.6353 8.47158C23.6353 11.8848 28.6802 11.9272 28.6802 13.7192C28.6802 15.5112 24.1555 15.191 22.6623 14.0606L22.1196 17.0261C22.1196 17.0261 23.7481 17.7725 26.237 17.7725C28.7256 17.7725 32.4811 16.5568 32.4811 13.2499C32.4811 9.81535 27.3909 9.49546 27.3909 8.00228ZM42.2744 4.33483H39.3419C37.9878 4.33483 37.6581 5.31932 37.6581 5.31932L32.2188 17.5452H36.0204L36.7809 15.5831H41.4177L41.8455 17.5452H45.1945L42.2744 4.33483ZM37.832 12.8722L39.7486 7.92854L40.8268 12.8722H37.832Z" fill="#005BAC"/>
<path fill-rule="evenodd" clip-rule="evenodd" d="M7.68687 2.44742C7.68687 2.44742 7.5359 0.878662 5.92417 0.878662H0.0685885L0 1.17349C0 1.17349 2.81466 1.88537 5.51497 4.55244C8.09549 7.1015 8.9373 10.279 8.9373 10.279L7.68687 2.44742Z" fill="#F6AC1D"/>
</svg>
