<svg width="20" height="17" viewBox="0 0 20 17" fill="none" xmlns="http://www.w3.org/2000/svg">
<path d="M9.97288 0.00714968C10.8757 0.00714968 11.7746 -0.0117302 12.6774 0.01187C13.8228 0.0401902 14.9683 0.0921106 16.1097 0.153471C16.583 0.181791 17.0643 0.195951 17.5336 0.304512C18.6512 0.559394 19.3154 1.37596 19.6216 2.66453C19.7847 3.34893 19.8443 4.05222 19.896 4.75551C20.0352 6.64824 20.0074 8.54097 19.9676 10.4337C19.9438 11.5524 19.904 12.6804 19.6654 13.7755C19.5659 14.2239 19.4506 14.6723 19.2319 15.0641C18.8341 15.7768 18.2614 16.1827 17.5614 16.3338C16.9609 16.4659 16.3523 16.4801 15.7438 16.5131C14.6183 16.5745 13.4927 16.6028 12.3672 16.6358C11.0348 16.6783 9.70243 16.6689 8.37404 16.6547C7.29621 16.6406 6.21441 16.6122 5.13658 16.5603C4.2258 16.5178 3.31104 16.499 2.41218 16.2913C1.91503 16.178 1.47356 15.9325 1.09175 15.5266C0.733797 15.1396 0.550845 14.6393 0.41562 14.1106C0.125282 12.9778 0.105396 11.8072 0.045738 10.6367C-0.0218747 9.26786 -0.00198861 7.89905 0.0258519 6.53496C0.0497153 5.38327 0.0934647 4.22686 0.296303 3.09405C0.41562 2.42381 0.578686 1.75828 0.988339 1.2438C1.49345 0.611314 2.13776 0.309232 2.86559 0.247872C3.7366 0.177071 4.61159 0.129871 5.4826 0.0873905C6.97803 0.0118699 8.47745 -0.0117305 9.97288 0.00714968ZM13.278 8.08785C13.262 8.03121 13.2183 8.02177 13.1865 8.00289C12.2518 7.41761 11.3132 6.83232 10.3746 6.24704C9.63084 5.78447 8.8871 5.31719 8.14336 4.84991C7.93654 4.72247 7.93257 4.72719 7.93257 5.01039C7.93257 7.04472 7.93257 9.07906 7.93257 11.1181C7.93257 11.1559 7.93257 11.1984 7.93257 11.2361C7.92859 11.3588 7.96836 11.3966 8.06382 11.3352C8.17915 11.2597 8.29449 11.1842 8.41381 11.1087C9.98084 10.1458 11.5518 9.17818 13.1189 8.21529C13.1745 8.17753 13.2461 8.16337 13.278 8.08785Z" fill="#A7A7A7"/>
</svg>
