<svg width="23" height="23" viewBox="0 0 23 23" fill="none" xmlns="http://www.w3.org/2000/svg">
<path d="M9.18707 18.8181C7.99815 18.8181 7.02539 19.759 7.02539 20.909C7.02539 22.0591 7.99815 23 9.18707 23C10.376 23 11.3488 22.0591 11.3488 20.909C11.3488 19.759 10.376 18.8181 9.18707 18.8181ZM9.18707 21.9545C8.59261 21.9545 8.10623 21.4841 8.10623 20.909C8.10623 20.334 8.59261 19.8636 9.18707 19.8636C9.78154 19.8636 10.2679 20.334 10.2679 20.909C10.2679 21.4841 9.78154 21.9545 9.18707 21.9545Z" fill="#202323"/>
<path d="M18.9146 18.8181C17.7257 18.8181 16.7529 19.759 16.7529 20.909C16.7529 22.0591 17.7257 23 18.9146 23C20.1035 23 21.0763 22.0591 21.0763 20.909C21.0763 19.759 20.1035 18.8181 18.9146 18.8181ZM18.9146 21.9545C18.3201 21.9545 17.8338 21.4841 17.8338 20.909C17.8338 20.334 18.3201 19.8636 18.9146 19.8636C19.5091 19.8636 19.9955 20.334 19.9955 20.909C19.9955 21.4841 19.5091 21.9545 18.9146 21.9545Z" fill="#202323"/>
<path d="M22.4812 3.86819C22.1029 3.39773 21.4544 3.13637 20.8059 3.13637H5.83647L5.6203 1.77728C5.45818 0.784092 4.53947 0 3.45865 0H0V1.04546H3.45865C3.99906 1.04546 4.48543 1.41137 4.53947 1.93409L6.80921 16.1C7.02538 17.0932 7.94408 17.825 8.97087 17.825H20.5357V16.7796H8.97087C8.43045 16.7796 7.99812 16.4137 7.89004 15.8909L7.67387 14.6364H19.6711C20.6978 14.6364 21.6165 13.9046 21.8327 12.8068L22.9676 5.48864C23.0757 4.91364 22.9135 4.33864 22.4812 3.86819ZM21.8867 5.3841L20.7519 12.7023C20.6438 13.2773 20.2115 13.6432 19.6711 13.6432H7.51175L5.99859 4.2341H20.8059C21.1302 4.2341 21.4544 4.39092 21.6706 4.60001C21.8867 4.75682 21.9408 5.07046 21.8867 5.3841Z" fill="#202323"/>
</svg>
